<?xml version="1.0" encoding="UTF-8"?>
<svg id="Layer_1" data-name="Layer 1" xmlns="http://www.w3.org/2000/svg" viewBox="0 0 121.92 178.7">
  <defs>
    <style>
      .cls-1 {
        fill: #00a79d;
      }

      .cls-2 {
        fill: #fbb040;
      }

      .cls-3 {
        fill: #1c75bc;
      }

      .cls-4 {
        fill: #fffef3;
      }

      .cls-4, .cls-5 {
        stroke: #b2b6ba;
        stroke-miterlimit: 10;
        stroke-width: .5px;
      }

      .cls-5 {
        fill: none;
      }
    </style>
  </defs>
  <path class="cls-4" d="m70.08,67.02s2.26-27.01,15.95-36.42c0,0,12.2,6.24,17.17,36.42h14.63"/>
  <path class="cls-5" d="m38.28,30.6s6.97-26.24,22.47-24.98c15.5,1.26,25.28,24.98,25.28,24.98"/>
  <path class="cls-4" d="m22.33,67.02h47.75-14.63c-4.97-30.18-17.17-36.42-17.17-36.42-13.69,9.42-15.95,36.42-15.95,36.42H3.4"/>
  <line class="cls-5" x1="103.2" y1="67.02" x2="70.08" y2="67.02"/>
  <path class="cls-5" d="m17,116.8s40.33,37.35,90.3,0"/>
  <path class="cls-4" d="m77.1,131.62s-4.62,36.71-8.84,39.39-10.27,0-10.27,0c-4.67-.78-10.78-39.13-10.78-39.13l29.89-.25Z"/>
  <path class="cls-3" d="m34.09,47.38c1.45-1.05,2.16-2.5,2.81-4.13.72-1.8,1.59-3.73,3.69-4.2.62-.14,1.42-.13,1.96.25.79.55.3,1.32-.08,1.94-.47.77-1.03,1.64-.78,2.59.48,1.83,2.9,1.67,4.34,1.59.87-.05,2.95-.17,2.69,1.25-.29,1.59-2.29,1.41-3.42,1.06-1.38-.43-4.39-2.17-5.42-.32s.42,4.25-.3,6.25c-.37,1.03-1.27,1.59-2.34,1.66-.42.03-.9,0-1.27-.22-.6-.34-.53-.99-.51-1.6.07-1.99-1.26-3.55-3.05-4.3-.5-.21-1-.33-1.53-.43-.78-.15-1.61-.37-1.06-1.32.58-.99,3.02-1.72,3.46-.2.22.77,1.43.44,1.21-.33-.66-2.31-3.95-2.11-5.33-.64-.61.65-1.05,1.68-.65,2.55.53,1.18,2.05,1.04,3.08,1.39,1.24.42,2.53,1.43,2.63,2.83.08,1.09-.19,2.15.81,2.92,1.6,1.23,4.29.56,5.34-1.08.62-.96.72-2.14.63-3.25-.06-.75-.21-1.5-.22-2.26,0-.47-.04-1.27.49-1.49.34-.15,1.01.09,1.36.19,2.23.64,5.35,2.39,6.99-.32.5-.83.53-1.92-.13-2.68-.81-.93-2.17-.97-3.3-.92s-4.08.38-3.04-1.63c.52-1.01,1.48-2.02.98-3.24s-2.01-1.64-3.2-1.54c-1.37.12-2.64.85-3.52,1.9-1.68,2-1.75,5.06-3.95,6.65-.64.47-.02,1.55.63,1.08h0Z"/>
  <path class="cls-2" d="m36.13,40.58c.44-1.73.96-3.57,2.57-4.57,1.11-.68,3.63-.96,4.1.72.2.75-.3,1.58-.18,2.36.09.61.41,1.16.96,1.46.71.38,1.47.05,2.19.28s.69,1.21.63,1.85c-.07.73-.33,1.47-1.08,1.73-.94.33-1.98-.22-2.82-.58-1.79-.77-1.93,1.58-1.93,2.79,0,.75.04,1.58-.39,2.23-.54.81-1.67.93-2.56.97-.36.01-.79.07-1.1-.16-.36-.27-.52-.86-.63-1.27-.19-.71-.29-1.44-.64-2.1s-.85-1.17-1.52-1.44c-.71-.29-2.16.02-2.51-.74-.43-.9.3-2.04,1.04-2.52.87-.56,1.95-.65,2.93-.4.78.2,1.11-1.01.33-1.21-1.88-.48-4.1.06-5.15,1.8-.98,1.62-.52,3.85,1.56,4.04,1.14.11,1.94.23,2.38,1.42.38,1.01.38,2.12,1.07,3,.57.73,1.35.85,2.23.81,1.03-.04,2.12-.2,2.96-.84.69-.53,1.05-1.32,1.18-2.17.07-.48.07-.95.07-1.44,0-.3,0-.6.02-.89.05-.54,0-.78.52-.6,1.66.58,3.75,1.15,4.84-.74.69-1.2.84-3.58-.42-4.49-.35-.25-.76-.35-1.19-.38-.52-.03-1.33.21-1.65-.34-.28-.48.04-1.19.1-1.68s.05-.98-.15-1.44c-.85-1.91-3.44-2.21-5.16-1.47-2.34,1.01-3.22,3.34-3.8,5.65-.2.78,1.01,1.11,1.21.33h0Z"/>
  <path class="cls-1" d="m40.11,47.14c-.24,2.55-.43,5.38,1.24,7.53.63.8,1.46,1.4,2.47,1.61.63.13,1.33.08,1.92.37.62.31.97.94,1.19,1.57.42,1.26.31,2.63.5,3.94.17,1.15.59,2.23,1.33,3.13,1.5,1.81,4.11,2.34,6.05.9.64-.47.02-1.56-.63-1.08-2.17,1.61-4.68,0-5.35-2.32-.6-2.06-.04-4.38-1.35-6.24-.49-.69-1.18-1.14-2.01-1.31-1.07-.21-2.02-.18-2.84-1.01-1.81-1.85-1.49-4.76-1.27-7.11.08-.8-1.17-.8-1.25,0h0Z"/>
  <path class="cls-3" d="m91.85,46.3c-2.04-1.46-2.24-4.12-3.59-6.08s-4.09-3.32-6.31-2c-1,.6-1.31,1.65-.88,2.71.23.58.64,1.04.93,1.59.58,1.1-.16,1.58-1.18,1.68-1.78.17-5.67-.78-5.8,2.12-.05,1.1.7,2.11,1.66,2.58,1.13.55,2.44.35,3.59-.02.7-.23,1.37-.55,2.08-.76.36-.11.82-.27,1.2-.24.73.06.85.63.86,1.32.03,1.33-.39,2.63-.2,3.97.33,2.29,2.35,3.67,4.61,3.34.92-.13,1.83-.61,2.14-1.54.18-.54.1-1.08.1-1.64,0-.72.23-1.32.7-1.86.52-.6,1.24-1.02,1.99-1.27s1.54-.22,2.24-.55c1.16-.54,1.26-1.83.65-2.84-1.17-1.93-5.08-2.5-5.83.1-.22.77.98,1.1,1.21.33.37-1.26,2.39-.91,3.13-.28.56.48.91,1.34-.04,1.68-.58.21-1.24.19-1.83.4-1.52.53-3.01,1.71-3.38,3.35-.19.85.31,2.18-.6,2.69-.75.41-1.93.26-2.65-.15-2.23-1.28-.78-4.46-1.05-6.43-.09-.67-.27-1.4-.93-1.72-.99-.47-2.36,0-3.32.34-1.06.39-2.15.94-3.31.85-1.35-.1-2.71-1.97-.83-2.5s4.08.66,5.66-.74c.51-.45.72-1.11.61-1.78-.16-.95-1.84-2.53-1.2-3.43.88-1.23,3.13-.38,4.02.35s1.39,1.74,1.82,2.76c.77,1.82,1.43,3.53,3.1,4.72.66.47,1.28-.62.63-1.08h0Z"/>
  <path class="cls-2" d="m88.53,40.25c-.48-1.97-1.12-3.97-2.86-5.19-1.51-1.05-3.65-1.22-5.11.02-.68.58-1,1.36-.92,2.26.05.52.31,1.1.19,1.62-.16.74-.94.55-1.52.57-1.98.05-2.36,2-2.11,3.63.31,1.97,1.94,2.93,3.85,2.44.3-.08.59-.18.88-.3.14-.06.5-.3.63-.28.33.06.25,1.18.25,1.53,0,.93,0,1.89.44,2.74s1.22,1.35,2.11,1.58,2,.39,2.84.08c2.1-.75,1.08-3.75,2.72-4.82.94-.62,2.23.02,3.04-.98.6-.75.59-1.91.27-2.78-.79-2.11-3.22-2.92-5.28-2.38-.78.2-.45,1.41.33,1.21,1.55-.41,3.62.24,3.89,2.03.07.45.04,1.08-.45,1.3-.33.15-.82.08-1.16.12-.7.07-1.3.33-1.8.84-.41.43-.69.98-.87,1.54-.25.79-.24,1.92-.85,2.54-.5.51-1.73.26-2.36.1-.96-.25-1.46-.89-1.59-1.85-.14-1.05.38-3.6-.96-4.1-.67-.25-1.43.37-2.04.57-.85.28-1.91.39-2.42-.52-.31-.55-.34-1.29-.29-1.9.03-.32.08-.68.32-.9.37-.33,1.05-.14,1.51-.17,1.49-.1,2.02-1.4,1.8-2.73-.17-1.04-.24-1.81.82-2.33.82-.4,1.76-.34,2.58.05,1.87.89,2.45,2.95,2.9,4.8.19.78,1.4.45,1.21-.33h0Z"/>
  <path class="cls-1" d="m83.99,47.57c.22,2.24.52,5.02-1.24,6.77-.8.79-1.74.76-2.78.96-.86.17-1.55.64-2.05,1.36-1.22,1.8-.65,4.03-1.29,5.99-.72,2.2-3.16,3.54-5.18,2.07-.65-.47-1.28.61-.63,1.08,1.8,1.31,4.27.95,5.76-.66.79-.85,1.27-1.91,1.46-3.05.21-1.26.09-2.57.48-3.8.18-.58.49-1.2,1.03-1.53s1.17-.3,1.75-.39c1.08-.16,1.97-.69,2.66-1.53,1.68-2.05,1.51-4.8,1.27-7.27-.08-.79-1.33-.8-1.25,0h0Z"/>
</svg>