<?xml version="1.0" encoding="UTF-8"?>
<svg id="Layer_1" data-name="Layer 1" xmlns="http://www.w3.org/2000/svg" viewBox="0 0 123.78 182.61">
  <defs>
    <style>
      .cls-1 {
        fill: #b2b6ba;
      }

      .cls-2 {
        fill: #dbedd2;
      }

      .cls-2, .cls-3 {
        stroke: #b2b6ba;
        stroke-miterlimit: 10;
        stroke-width: .5px;
      }

      .cls-3 {
        fill: none;
      }
    </style>
  </defs>
  <path class="cls-2" d="m70.25,71.86s2.26-27.01,15.95-36.42c0,0,12.2,6.24,17.17,36.42h14.63"/>
  <path class="cls-3" d="m38.45,35.44s6.97-26.24,22.47-24.98c15.5,1.26,25.28,24.98,25.28,24.98"/>
  <path class="cls-2" d="m22.5,71.86h47.75-14.63c-4.97-30.18-17.17-36.42-17.17-36.42-13.69,9.42-15.95,36.42-15.95,36.42H3.57"/>
  <line class="cls-3" x1="103.38" y1="71.86" x2="70.25" y2="71.86"/>
  <path class="cls-3" d="m17.18,121.63s40.33,37.35,90.3,0"/>
  <path class="cls-2" d="m77.27,136.46s-4.62,36.71-8.84,39.39-10.27,0-10.27,0c-4.67-.78-10.78-39.13-10.78-39.13l29.89-.25Z"/>
  <path class="cls-1" d="m83.61,38.09c.16.43.81,1.3.36,1.66-.19.16-.47.2-.67.38s-.35.41-.47.65c-.54,1.11-.59,2.58-.57,3.8.05,2.6.85,5.19,2.38,7.29.47.64,1.55.02,1.08-.63-1.54-2.11-2.3-4.7-2.21-7.32.02-.64.09-1.27.23-1.9.06-.28.12-.64.32-.87s.48-.25.72-.41c1.12-.75.38-2.06.03-2.99-.29-.74-1.49-.42-1.21.33h0Z"/>
  <path class="cls-1" d="m84.58,40.83c.9-.28,1.73-.41,2.47.28.58.54,1.02,1.25,1.3,1.98.6,1.53.66,3.23.14,4.8-.25.77.96,1.09,1.21.33.64-1.94.49-4.09-.35-5.95-.41-.91-1.02-1.79-1.83-2.38-1-.72-2.16-.61-3.28-.26-.77.24-.44,1.44.33,1.21h0Z"/>
  <path class="cls-1" d="m84.75,37.55c-.19.9-.07,1.83.35,2.65.15.29.58.4.86.22.3-.19.38-.54.22-.86-.02-.04-.04-.09-.06-.13-.06-.11.05.12,0,.01-.03-.09-.06-.17-.09-.26-.05-.17-.09-.35-.11-.53l.02.17c-.04-.3-.04-.6,0-.89l-.02.17c.01-.07.02-.15.04-.22.07-.32-.09-.69-.44-.77-.31-.07-.7.09-.77.44h0Z"/>
  <path class="cls-1" d="m85.32,37.01c-.47.03-.9.15-1.33.35-.17.08-.27.28-.3.46-.03.2.04.38.17.53.18.19.38.37.64.44.32.09.68,0,.92-.24l-1.04-.61c-.07.31-.1.64-.06.96s.12.63.19.95.46.54.77.44c.33-.11.52-.43.44-.77-.06-.26-.13-.52-.17-.78l.02.17c-.02-.2-.02-.4,0-.61l-.02.17c0-.06.02-.12.03-.19.06-.26-.04-.57-.29-.71s-.56-.11-.76.1c-.08.08.13-.08.04-.03l.15-.06s-.05.02-.08.02l.17-.02s-.06,0-.08,0l.17.02s-.07-.02-.11-.03l.15.06s-.09-.04-.09-.05c0,0,.13.11.04.02-.05-.04-.09-.09-.13-.14l-.13.98s.09-.04.13-.06l-.15.06c.23-.09.46-.16.7-.19l-.17.02c.06,0,.12-.01.18-.02.17-.01.32-.06.44-.18.11-.11.19-.29.18-.44-.01-.32-.28-.65-.62-.62h0Z"/>
  <path class="cls-1" d="m84.9,38.33c1.43-.18,2.74.6,3.59,1.71.97,1.27,1.41,2.87,1.65,4.43.05.33.47.52.77.44.36-.1.49-.43.44-.77-.27-1.8-.85-3.59-2-5.02-1.05-1.3-2.73-2.25-4.44-2.03-.33.04-.62.26-.62.62,0,.3.29.67.62.62h0Z"/>
  <path class="cls-1" d="m87.04,54.92c1.25-2.96,1.37-6.35.21-9.36-.29-.74-1.49-.42-1.21.33,1.03,2.67,1.04,5.74-.08,8.39-.13.31-.09.67.22.86.26.16.72.09.86-.22h0Z"/>
  <path class="cls-1" d="m74.19,57.65c.12-.42.24-.85.37-1.27.07-.23.11-.82.35-.48.44.63-.16,1.92-.43,2.51-.74,1.61-1.48,3.04-1.56,4.85-.12,2.73.91,6.85,3.92,7.68.78.21,1.11-.99.33-1.21-1.81-.5-2.54-2.73-2.85-4.37-.21-1.07-.24-2.19-.01-3.26s.69-1.91,1.13-2.84c.6-1.25,1.48-3.45.09-4.53-1.67-1.3-2.27,1.59-2.55,2.58-.22.77.98,1.11,1.21.33h0Z"/>
  <path class="cls-1" d="m89.08,71.21c2.91-.12,5.61-2.17,7.44-4.31s3.03-4.7,3.46-7.46c.12-.79-1.08-1.13-1.21-.33-.38,2.48-1.42,4.84-3.03,6.78s-4.05,3.97-6.67,4.08c-.8.03-.81,1.28,0,1.25h0Z"/>
  <path class="cls-1" d="m94.4,71.95c3.64-1.13,6.54-4.27,7.3-8.02.16-.79-1.04-1.12-1.21-.33-.68,3.32-3.18,6.14-6.43,7.14-.77.24-.44,1.44.33,1.21h0Z"/>
  <path class="cls-1" d="m97.59,65.38s.13-.03.03-.02c-.13.01.08.02-.05,0s.03.01.03.01c0,0-.13-.07-.04-.01.03.02.06.03.09.05.05.03.07.08,0-.01.04.05.1.08.14.12.2.18.4.37.57.59.05.06.01,0-.02-.02.03.02.05.06.06.09.04.05.07.11.11.17s.06.11.09.17c.04.07-.05-.14,0,0,0,.03.02.05.03.08.02.07.04.14.05.21.02.1,0-.04,0-.04,0,0,0,.1,0,.11,0,.02,0,.19,0,.19,0,0,.03-.14,0-.04,0,.04-.02.08-.03.12-.09.31.11.69.44.77s.67-.1.77-.44c.23-.82-.1-1.61-.61-2.24-.2-.25-.44-.48-.68-.68-.35-.29-.83-.56-1.29-.37-.16.07-.28.13-.37.29-.08.13-.11.33-.06.48.09.29.45.57.77.44h0Z"/>
  <path class="cls-1" d="m98.45,63.23c.15.08.29.17.43.26-.12-.08.01,0,.03.03.03.03.06.05.09.08.06.06.12.12.18.18.03.03.06.06.08.09.01.01.1.12.04.05s.03.04.04.06c.02.03.05.07.07.1.09.15.18.3.25.46-.03-.08-.02-.05,0,.01.01.04.03.08.04.12.03.08.05.16.07.24s.04.16.05.24c.03.16,0-.09,0,0,0,.04,0,.08.01.12.01.18,0,.35,0,.52,0,.09.03-.15,0,0,0,.04-.01.08-.02.12-.02.09-.04.18-.07.27-.1.31.12.7.44.77.34.08.66-.1.77-.44.52-1.65-.3-3.62-1.86-4.39-.29-.15-.69-.09-.86.22-.15.28-.09.7.22.86h0Z"/>
  <path class="cls-1" d="m83.5,57.4c-2.01,1-2.71,3.54-1.66,5.47.57,1.05,1.32,1.89,1.46,3.13.12,1.12-.17,2.24-.99,3.04-.58.56.31,1.44.88.88,1.59-1.54,1.72-4.02.79-5.95-.49-1.01-1.43-1.85-1.41-3.05.02-1.05.62-1.99,1.55-2.45.72-.36.09-1.44-.63-1.08h0Z"/>
  <path class="cls-1" d="m90,55.02c-1.79,1.18-2.75,3.25-2.44,5.38s2.29,4.7,1.15,6.91c-.37.71.71,1.35,1.08.63,1.07-2.08.1-4.2-.6-6.22-.36-1.05-.6-2.12-.3-3.21.27-.99.89-1.84,1.75-2.4.67-.44.04-1.52-.63-1.08h0Z"/>
  <path class="cls-1" d="m83.06,63.36s.15.06.19.09c.14.07.27.16.41.23.31.16.65.31.99.4.66.18,1.36.16,1.99-.11.54-.24.94-.67,1.23-1.17.25-.43.45-.95.78-1.31.55-.59-.33-1.47-.88-.88-.36.39-.6.86-.84,1.32-.21.39-.41.76-.84.92-.49.19-1.04.08-1.51-.12-.63-.26-1.12-.72-1.85-.57-.33.07-.52.46-.44.77.1.35.44.5.77.44h0Z"/>
  <path class="cls-1" d="m84.56,67.14c.29-.44.6-.86.94-1.27.31-.37.62-.76,1.1-.91.62-.19,2-.35,2.21.41s1.41.45,1.21-.33c-.4-1.51-2.22-1.6-3.49-1.35-.7.14-1.24.54-1.71,1.07s-.93,1.13-1.33,1.74c-.44.68.64,1.3,1.08.63h0Z"/>
  <path class="cls-1" d="m88.21,62.21c-.13.03-.26.08-.39.13s-.25.11-.37.19c-.13.09-.26.19-.38.3s-.22.24-.31.37c-.06.1-.08.2-.09.32,0,.11.03.22.09.32.11.18.32.32.54.31.32-.01.64,0,.95.04l-.17-.02c.07.01.15.02.22.04.08.03.17.03.25.01.08,0,.16-.03.23-.07.13-.08.25-.22.29-.37.04-.16.03-.34-.06-.48-.08-.13-.22-.26-.37-.29-.44-.08-.89-.12-1.34-.1l.54.94s.02-.03.03-.04l-.1.13c.09-.12.2-.23.32-.32l-.13.1c.13-.1.26-.18.41-.24l-.15.06c.1-.04.21-.07.31-.1.15-.03.3-.16.37-.29s.11-.33.06-.48-.14-.3-.29-.37c-.15-.08-.31-.1-.48-.06h0Z"/>
  <path class="cls-1" d="m85.21,63.59h-1.29c-.22.01-.43.13-.54.32-.06.1-.08.2-.09.32,0,.11.03.22.09.32.15.34.43.63.74.83.13.08.33.1.48.06s.3-.15.37-.29c.16-.31.07-.67-.22-.86-.03-.02-.07-.04-.1-.07l.13.1c-.09-.07-.17-.15-.24-.24l.1.13c-.07-.09-.13-.19-.17-.3l-.54.94h1.29c.16-.01.33-.08.44-.2.11-.11.19-.29.18-.44s-.06-.33-.18-.44-.27-.18-.44-.18h0Z"/>
  <path class="cls-1" d="m36.02,38.19c.16.43.81,1.3.36,1.66-.19.16-.47.2-.67.38s-.35.41-.47.65c-.54,1.11-.59,2.58-.57,3.8.05,2.6.85,5.19,2.38,7.29.47.64,1.55.02,1.08-.63-1.54-2.11-2.3-4.7-2.21-7.32.02-.64.09-1.27.23-1.9.06-.28.12-.64.32-.87s.48-.25.72-.41c1.12-.75.38-2.06.03-2.99-.29-.74-1.49-.42-1.21.33h0Z"/>
  <path class="cls-1" d="m36.99,40.92c.9-.28,1.73-.41,2.47.28.58.54,1.02,1.25,1.3,1.98.6,1.53.66,3.23.14,4.8-.25.77.96,1.09,1.21.33.64-1.94.49-4.09-.35-5.95-.41-.91-1.02-1.79-1.83-2.38-1-.72-2.16-.61-3.28-.26-.77.24-.44,1.44.33,1.21h0Z"/>
  <path class="cls-1" d="m37.32,38.42c1.43-.18,2.74.6,3.59,1.71.97,1.27,1.41,2.87,1.65,4.43.05.33.47.52.77.44.36-.1.49-.43.44-.77-.27-1.8-.85-3.59-2-5.02-1.05-1.3-2.73-2.25-4.44-2.03-.33.04-.62.26-.62.62,0,.3.29.67.62.62h0Z"/>
  <path class="cls-1" d="m39.45,55.01c1.25-2.96,1.37-6.35.21-9.36-.29-.74-1.49-.42-1.21.33,1.03,2.67,1.04,5.74-.08,8.39-.13.31-.09.67.22.86.26.16.72.09.86-.22h0Z"/>
  <path class="cls-1" d="m26.61,57.74c.12-.42.24-.85.37-1.27.07-.23.11-.82.35-.48.44.63-.16,1.92-.43,2.51-.74,1.61-1.48,3.04-1.56,4.85-.12,2.73.91,6.85,3.92,7.68.78.21,1.11-.99.33-1.21-1.81-.5-2.54-2.73-2.85-4.37-.21-1.07-.24-2.19-.01-3.26s.69-1.91,1.13-2.84c.6-1.25,1.48-3.45.09-4.53-1.67-1.3-2.27,1.59-2.55,2.58-.22.77.98,1.11,1.21.33h0Z"/>
  <path class="cls-1" d="m41.49,71.3c2.91-.12,5.61-2.17,7.44-4.31s3.03-4.7,3.46-7.46c.12-.79-1.08-1.13-1.21-.33-.38,2.48-1.42,4.84-3.03,6.78s-4.05,3.97-6.67,4.08c-.8.03-.81,1.28,0,1.25h0Z"/>
  <path class="cls-1" d="m46.81,72.05c3.64-1.13,6.54-4.27,7.3-8.02.16-.79-1.04-1.12-1.21-.33-.68,3.32-3.18,6.14-6.43,7.14-.77.24-.44,1.44.33,1.21h0Z"/>
  <path class="cls-1" d="m50,65.47s.13-.03.03-.02c-.13.01.08.02-.05,0s.03.01.03.01c0,0-.13-.07-.04-.01.03.02.06.03.09.05.05.03.07.08,0-.01.04.05.1.08.14.12.2.18.4.37.57.59.05.06.01,0-.02-.02.03.02.05.06.06.09.04.05.07.11.11.17s.06.11.09.17c.04.07-.05-.14,0,0,0,.03.02.05.03.08.02.07.04.14.05.21.02.1,0-.04,0-.04,0,0,0,.1,0,.11,0,.02,0,.19,0,.19,0,0,.03-.14,0-.04,0,.04-.02.08-.03.12-.09.31.11.69.44.77s.67-.1.77-.44c.23-.82-.1-1.61-.61-2.24-.2-.25-.44-.48-.68-.68-.35-.29-.83-.56-1.29-.37-.16.07-.28.13-.37.29-.08.13-.11.33-.06.48.09.29.45.57.77.44h0Z"/>
  <path class="cls-1" d="m50.86,63.32c.15.08.29.17.43.26-.12-.08.01,0,.03.03.03.03.06.05.09.08.06.06.12.12.18.18.03.03.06.06.08.09.01.01.1.12.04.05s.03.04.04.06c.02.03.05.07.07.1.09.15.18.3.25.46-.03-.08-.02-.05,0,.01.01.04.03.08.04.12.03.08.05.16.07.24s.04.16.05.24c.03.16,0-.09,0,0,0,.04,0,.08.01.12.01.18,0,.35,0,.52,0,.09.03-.15,0,0,0,.04-.01.08-.02.12-.02.09-.04.18-.07.27-.1.31.12.7.44.77.34.08.66-.1.77-.44.52-1.65-.3-3.62-1.86-4.39-.29-.15-.69-.09-.86.22-.15.28-.09.7.22.86h0Z"/>
  <path class="cls-1" d="m35.91,57.5c-2.01,1-2.71,3.54-1.66,5.47.57,1.05,1.32,1.89,1.46,3.13.12,1.12-.17,2.24-.99,3.04-.58.56.31,1.44.88.88,1.59-1.54,1.72-4.02.79-5.95-.49-1.01-1.43-1.85-1.41-3.05.02-1.05.62-1.99,1.55-2.45.72-.36.09-1.44-.63-1.08h0Z"/>
  <path class="cls-1" d="m42.41,55.12c-1.79,1.18-2.75,3.25-2.44,5.38s2.29,4.7,1.15,6.91c-.37.71.71,1.35,1.08.63,1.07-2.08.1-4.2-.6-6.22-.36-1.05-.6-2.12-.3-3.21.27-.99.89-1.84,1.75-2.4.67-.44.04-1.52-.63-1.08h0Z"/>
  <path class="cls-1" d="m35.48,63.46s.15.06.19.09c.14.07.27.16.41.23.31.16.65.31.99.4.66.18,1.36.16,1.99-.11.54-.24.94-.67,1.23-1.17.25-.43.45-.95.78-1.31.55-.59-.33-1.47-.88-.88-.36.39-.6.86-.84,1.32-.21.39-.41.76-.84.92-.49.19-1.04.08-1.51-.12-.63-.26-1.12-.72-1.85-.57-.33.07-.52.46-.44.77.1.35.44.5.77.44h0Z"/>
  <path class="cls-1" d="m36.97,67.24c.29-.44.6-.86.94-1.27.31-.37.62-.76,1.1-.91.62-.19,2-.35,2.21.41s1.41.45,1.21-.33c-.4-1.51-2.22-1.6-3.49-1.35-.7.14-1.24.54-1.71,1.07s-.93,1.13-1.33,1.74c-.44.68.64,1.3,1.08.63h0Z"/>
  <path class="cls-1" d="m40.62,62.31c-.13.03-.26.08-.39.13s-.25.11-.37.19c-.13.09-.26.19-.38.3s-.22.24-.31.37c-.06.1-.08.2-.09.32,0,.11.03.22.09.32.11.18.32.32.54.31.32-.01.64,0,.95.04l-.17-.02c.07.01.15.02.22.04.08.03.17.03.25.01.08,0,.16-.03.23-.07.13-.08.25-.22.29-.37.04-.16.03-.34-.06-.48-.08-.13-.22-.26-.37-.29-.44-.08-.89-.12-1.34-.1l.54.94s.02-.03.03-.04l-.1.13c.09-.12.2-.23.32-.32l-.13.1c.13-.1.26-.18.41-.24l-.15.06c.1-.04.21-.07.31-.1.15-.03.3-.16.37-.29s.11-.33.06-.48-.14-.3-.29-.37c-.15-.08-.31-.1-.48-.06h0Z"/>
  <path class="cls-1" d="m37.63,63.69h-1.29c-.22.01-.43.13-.54.32-.06.1-.08.2-.09.32,0,.11.03.22.09.32.15.34.43.63.74.83.13.08.33.1.48.06s.3-.15.37-.29c.16-.31.07-.67-.22-.86-.03-.02-.07-.04-.1-.07l.13.1c-.09-.07-.17-.15-.24-.24l.1.13c-.07-.09-.13-.19-.17-.3l-.54.94h1.29c.16-.01.33-.08.44-.2.11-.11.19-.29.18-.44s-.06-.33-.18-.44-.27-.18-.44-.18h0Z"/>
  <path class="cls-1" d="m53.83,139.14c.2.26.82.79.74,1.08-.04.15-.3.32-.38.49-.11.23-.15.49-.17.74-.04,1.01.3,2.12.65,3.05.72,1.92,1.89,3.69,3.5,4.97.62.49,1.51-.39.88-.88-1.58-1.25-2.73-2.98-3.35-4.89-.15-.47-.28-.96-.37-1.45-.04-.24-.08-.48-.08-.72s.08-.31.23-.47c.34-.36.4-.85.26-1.31-.16-.51-.54-.83-.85-1.24-.21-.27-.53-.41-.86-.22-.26.15-.43.59-.22.86h0Z"/>
  <path class="cls-1" d="m55.55,140.98c.22-.17.47-.36.75-.42s.53.05.77.18c.53.29.98.74,1.34,1.22.76.99,1.23,2.23,1.29,3.48.02.34.28.62.62.62.33,0,.64-.29.62-.62-.08-1.66-.72-3.26-1.79-4.53-.53-.63-1.21-1.2-1.99-1.48-.94-.34-1.77.1-2.5.67-.26.21-.22.66,0,.88.26.26.62.21.88,0h0Z"/>
  <path class="cls-1" d="m55.09,139.03c.91-.47,2.04.05,2.76.66.89.76,1.52,1.77,2.05,2.81.15.3.58.39.86.22.31-.18.38-.55.22-.86-.63-1.26-1.44-2.47-2.57-3.33s-2.64-1.26-3.94-.59c-.3.15-.39.58-.22.86.18.31.55.38.86.22h0Z"/>
  <path class="cls-1" d="m60.92,151.05c.07-2.61-.83-5.2-2.42-7.27-.21-.27-.67-.22-.88,0-.26.26-.21.62,0,.88,1.39,1.79,2.11,4.12,2.05,6.38-.02.8,1.23.8,1.25,0h0Z"/>
  <path class="cls-1" d="m52.99,156.24c-.03-.39-.07-.77-.1-1.16,0-.05.02-.37-.02-.4-.29-.03-.38,0-.25.09.06.04.1.09.13.15.34.5.3,1.27.27,1.84-.07,1.37-.19,2.65.19,3.99.36,1.24.98,2.39,1.78,3.4.75.94,1.78,1.8,3.04,1.77.8-.02.81-1.27,0-1.25-1.41.04-2.45-1.66-3.02-2.75-.74-1.4-.93-2.83-.8-4.39.1-1.22.25-3.15-1.02-3.88-.51-.29-1.14-.14-1.43.38-.35.62-.1,1.56-.04,2.22.07.8,1.32.8,1.25,0h0Z"/>
  <path class="cls-1" d="m66.4,163.28c2.03-.82,3.27-2.96,3.97-4.94.77-2.2.87-4.59.42-6.86-.16-.79-1.36-.45-1.21.33.38,1.94.29,3.97-.31,5.86-.51,1.61-1.54,3.74-3.21,4.41-.74.3-.41,1.51.33,1.21h0Z"/>
  <path class="cls-1" d="m70.35,162.51c2.36-1.88,3.23-5.1,2.79-8-.05-.33-.47-.52-.77-.44-.36.1-.49.43-.44.77.38,2.48-.47,5.19-2.47,6.78-.26.21-.22.66,0,.88.26.26.62.21.88,0h0Z"/>
  <path class="cls-1" d="m70.77,156.75s.02-.02.04-.03l-.13.1s.03-.02.04-.02l-.15.06s.05-.02.07-.02l-.17.02s.07,0,.1,0l-.17-.02c.07.01.15.03.22.06l-.15-.06c.27.12.54.27.77.45l-.13-.1c.12.1.24.21.34.33l-.1-.13c.09.11.16.23.22.37l-.06-.15c.04.1.07.21.09.32l-.02-.17s0,.04,0,.06c.01.17.06.32.18.44.11.11.29.19.44.18.31-.01.66-.28.62-.62s-.13-.66-.31-.95-.43-.52-.72-.73c-.21-.15-.44-.28-.67-.38-.19-.09-.37-.15-.58-.16-.25,0-.49.09-.67.27-.23.23-.25.66,0,.88s.63.25.88,0h0Z"/>
  <path class="cls-1" d="m70.51,155c.13.02.25.06.37.1.07.03-.14-.06-.04-.02.03.01.06.03.09.04.06.03.12.07.18.1.05.03.11.07.16.11.06.04-.11-.09-.03-.02.03.02.05.05.08.07.1.09.2.19.29.3.02.02.04.05.06.07-.12-.12-.04-.05-.01-.01.04.05.08.11.11.17s.07.12.1.17c.02.03.03.07.05.1.02.05.04.14,0-.02.03.13.09.25.13.38.02.07.03.14.04.21.02.12-.01-.15,0-.02,0,.04,0,.07,0,.11.02.33.27.64.62.62.32-.01.65-.28.62-.62-.05-.76-.34-1.44-.82-2.02-.41-.51-1.02-.92-1.67-1.04-.32-.06-.69.09-.77.44-.07.31.09.7.44.77h0Z"/>
  <path class="cls-1" d="m58.93,153.79c-1.21,1.36-.99,3.49.25,4.75.66.66,1.37,1.15,1.78,2.01.35.73.52,1.67.19,2.44-.13.31-.09.67.22.86.26.16.72.09.86-.22.71-1.66.19-3.57-.99-4.88-.58-.64-1.43-1.08-1.73-1.93-.25-.69-.21-1.57.3-2.14.53-.6-.35-1.49-.88-.88h0Z"/>
  <path class="cls-1" d="m62.58,150.59c-1,1.47-.93,3.41-.1,4.93s2.65,2.92,2.48,4.86c-.07.8,1.18.8,1.25,0,.17-1.87-1.15-3.28-2.15-4.69-.95-1.34-1.38-3.01-.4-4.47.45-.67-.63-1.29-1.08-.63h0Z"/>
  <path class="cls-1" d="m60.34,158.67c.06-.04.05-.04-.02,0-.08,0-.1,0-.05,0,.17.03-.07-.03.06,0,.11.03.22.05.32.08.27.06.56.1.84.09.54-.02,1.06-.19,1.46-.57.35-.33.53-.79.6-1.26.04-.25.06-.51.09-.77.02-.17-.02.13,0-.03,0-.05.02-.1.03-.15.02-.11.05-.22.09-.33.11-.31-.13-.7-.44-.77-.35-.08-.65.11-.77.44-.15.41-.17.86-.21,1.29,0,.02,0,.05,0,.07,0,.05,0,.03,0-.04,0,.03-.02.12-.03.15-.02.09-.05.19-.07.28-.05.14.06-.11-.01.02-.02.04-.05.08-.07.12-.08.12.08-.08-.02.02-.03.03-.07.07-.1.1-.09.08.1-.05-.02.01-.04.02-.08.05-.12.07-.11.07.11-.03-.02.01-.04.01-.09.03-.13.04-.05.01-.1.02-.15.03.11-.02-.03,0-.06,0-.12,0-.23,0-.35-.01-.14-.01.08.02-.07-.01-.06-.01-.12-.02-.18-.04-.1-.02-.19-.05-.29-.07-.32-.06-.64-.07-.93.12s-.41.56-.22.86c.18.27.56.41.86.22h0Z"/>
  <path class="cls-1" d="m62.45,161.14c.08-.43.19-.86.32-1.28.03-.1.07-.21.1-.31.02-.04.03-.09.05-.13.06-.16-.06.1.02-.05.02-.04.04-.08.06-.12,0-.02.1-.15.05-.09-.05.06.04-.04.05-.06.04-.04.07-.07.11-.1-.06.06-.03.02.02,0,.04-.02.07-.05.11-.07.09-.05.18-.1.27-.14.11-.05-.05.02.02,0,.04-.02.09-.03.13-.05.11-.04.21-.07.32-.09-.09.02-.03,0,.03,0,.03,0,.12-.02.14,0-.09-.01-.11-.02-.06,0,.02,0,.04,0,.06.01.04,0,.07.02.11.03.07.02-.1-.06,0,0,.04.02.08.04.11.07-.11-.12-.01,0,0,.02.09.09-.06-.09.01.02.17.28.57.41.86.22s.41-.56.22-.86c-.31-.49-.85-.79-1.44-.78-.52,0-1.09.23-1.52.51-.25.17-.46.36-.64.61-.15.22-.25.48-.34.73-.18.51-.31,1.03-.41,1.56-.06.32.09.69.44.77.31.07.7-.09.77-.44h0Z"/>
  <path class="cls-1" d="m63.41,156.36c-.11.07-.22.15-.31.24s-.18.2-.25.31c-.05.07-.09.14-.12.22-.06.13-.11.26-.15.39-.05.22,0,.45.16.61.08.08.17.13.28.16.11.03.22.03.33,0,.26-.1.52-.17.8-.21l-.17.02h.01c.09,0,.17-.02.24-.06.08-.03.14-.07.2-.13.06-.06.1-.12.13-.2.04-.07.06-.15.05-.24,0-.16-.06-.33-.18-.44l-.13-.1c-.1-.06-.2-.08-.32-.09-.19.03-.38.05-.57.1-.14.04-.27.08-.41.13l.77.77c.02-.07.04-.15.07-.22l-.06.15c.04-.1.1-.2.17-.29l-.1.13c.06-.08.14-.16.22-.22l-.13.1s.05-.04.08-.05c.14-.09.24-.21.29-.37.03-.08.03-.17.01-.25,0-.08-.03-.16-.07-.23-.09-.13-.21-.25-.37-.29s-.34-.03-.48.06h0Z"/>
  <path class="cls-1" d="m61.8,158.1l-.86.31c-.11.03-.2.08-.28.16-.08.08-.13.17-.16.28-.03.11-.03.22,0,.33.03.11.08.2.16.28.1.12.23.22.36.31.04.03.09.06.14.08.09.04.19.09.29.12.08.03.17.03.25.01.08,0,.16-.03.23-.07.07-.04.13-.09.18-.16.06-.06.09-.13.11-.21.04-.16.03-.34-.06-.48s-.21-.24-.37-.29c-.03-.01-.07-.02-.1-.04l.15.06c-.08-.03-.15-.08-.22-.13l.13.1c-.07-.05-.13-.11-.18-.18l-.28,1.04.86-.31c.08-.02.15-.06.21-.11.07-.04.12-.1.16-.18.05-.07.07-.15.07-.23.02-.08.01-.17-.01-.25-.05-.15-.14-.3-.29-.37s-.32-.12-.48-.06h0Z"/>
</svg>