<?xml version="1.0" encoding="UTF-8"?>
<svg id="Layer_1" data-name="Layer 1" xmlns="http://www.w3.org/2000/svg" viewBox="0 0 173.9 194.72">
  <defs>
    <style>
      .cls-1 {
        fill: #dbedd2;
      }

      .cls-2 {
        fill: #b2b6ba;
      }

      .cls-2, .cls-3 {
        stroke: #dbedd2;
        stroke-miterlimit: 10;
        stroke-width: .5px;
      }

      .cls-3 {
        fill: none;
      }
    </style>
  </defs>
  <path class="cls-2" d="m97.42,77.98s2.26-27.01,15.95-36.42c0,0,12.2,6.24,17.17,36.42h14.63"/>
  <path class="cls-3" d="m65.62,41.56s6.97-26.24,22.47-24.98c15.5,1.26,25.28,24.98,25.28,24.98"/>
  <path class="cls-2" d="m49.67,77.98h47.75-14.63c-4.97-30.18-17.17-36.42-17.17-36.42-13.69,9.42-15.95,36.42-15.95,36.42h-18.93"/>
  <line class="cls-3" x1="130.54" y1="77.98" x2="97.42" y2="77.98"/>
  <path class="cls-3" d="m44.34,127.75s40.33,37.35,90.3,0"/>
  <path class="cls-2" d="m104.44,142.58s-4.62,36.71-8.84,39.39-10.27,0-10.27,0c-4.67-.78-10.78-39.13-10.78-39.13l29.89-.25Z"/>
  <path class="cls-1" d="m62.96,43.93c.16.43.81,1.3.36,1.66-.19.16-.47.2-.67.38s-.35.41-.47.65c-.54,1.11-.59,2.58-.57,3.8.05,2.6.85,5.19,2.38,7.29.47.64,1.55.02,1.08-.63-1.54-2.11-2.3-4.7-2.21-7.32.02-.64.09-1.27.23-1.9.06-.28.12-.64.32-.87s.48-.25.72-.41c1.12-.75.38-2.06.03-2.99-.29-.74-1.49-.42-1.21.33h0Z"/>
  <path class="cls-1" d="m63.93,46.66c.9-.28,1.73-.41,2.47.28.58.54,1.02,1.25,1.3,1.98.6,1.53.66,3.23.14,4.8-.25.77.96,1.09,1.21.33.64-1.94.49-4.09-.35-5.95-.41-.91-1.02-1.79-1.83-2.38-1-.72-2.16-.61-3.28-.26-.77.24-.44,1.44.33,1.21h0Z"/>
  <path class="cls-1" d="m64.26,44.16c1.43-.18,2.74.6,3.59,1.71.97,1.27,1.41,2.87,1.65,4.43.05.33.47.52.77.44.36-.1.49-.43.44-.77-.27-1.8-.85-3.59-2-5.02-1.05-1.3-2.73-2.25-4.44-2.03-.33.04-.62.26-.62.62,0,.3.29.67.62.62h0Z"/>
  <path class="cls-1" d="m66.39,60.75c1.25-2.96,1.37-6.35.21-9.36-.29-.74-1.49-.42-1.21.33,1.03,2.67,1.04,5.74-.08,8.39-.13.31-.09.67.22.86.26.16.72.09.86-.22h0Z"/>
  <path class="cls-1" d="m53.54,63.48c.12-.42.24-.85.37-1.27.07-.23.11-.82.35-.48.44.63-.16,1.92-.43,2.51-.74,1.61-1.48,3.04-1.56,4.85-.12,2.73.91,6.85,3.92,7.68.78.21,1.11-.99.33-1.21-1.81-.5-2.54-2.73-2.85-4.37-.21-1.07-.24-2.19-.01-3.26s.69-1.91,1.13-2.84c.6-1.25,1.48-3.45.09-4.53-1.67-1.3-2.27,1.59-2.55,2.58-.22.77.98,1.11,1.21.33h0Z"/>
  <path class="cls-1" d="m68.43,77.04c2.91-.12,5.61-2.17,7.44-4.31s3.03-4.7,3.46-7.46c.12-.79-1.08-1.13-1.21-.33-.38,2.48-1.42,4.84-3.03,6.78s-4.05,3.97-6.67,4.08c-.8.03-.81,1.28,0,1.25h0Z"/>
  <path class="cls-1" d="m73.75,77.78c3.64-1.13,6.54-4.27,7.3-8.02.16-.79-1.04-1.12-1.21-.33-.68,3.32-3.18,6.14-6.43,7.14-.77.24-.44,1.44.33,1.21h0Z"/>
  <path class="cls-1" d="m76.94,71.21s.13-.03.03-.02c-.13.01.08.02-.05,0s.03.01.03.01c0,0-.13-.07-.04-.01.03.02.06.03.09.05.05.03.07.08,0-.01.04.05.1.08.14.12.2.18.4.37.57.59.05.06.01,0-.02-.02.03.02.05.06.06.09.04.05.07.11.11.17s.06.11.09.17c.04.07-.05-.14,0,0,0,.03.02.05.03.08.02.07.04.14.05.21.02.1,0-.04,0-.04,0,0,0,.1,0,.11,0,.02,0,.19,0,.19,0,0,.03-.14,0-.04,0,.04-.02.08-.03.12-.09.31.11.69.44.77s.67-.1.77-.44c.23-.82-.1-1.61-.61-2.24-.2-.25-.44-.48-.68-.68-.35-.29-.83-.56-1.29-.37-.16.07-.28.13-.37.29-.08.13-.11.33-.06.48.09.29.45.57.77.44h0Z"/>
  <path class="cls-1" d="m77.8,69.06c.15.08.29.17.43.26-.12-.08.01,0,.03.03.03.03.06.05.09.08.06.06.12.12.18.18.03.03.06.06.08.09.01.01.1.12.04.05s.03.04.04.06c.02.03.05.07.07.1.09.15.18.3.25.46-.03-.08-.02-.05,0,.01.01.04.03.08.04.12.03.08.05.16.07.24s.04.16.05.24c.03.16,0-.09,0,0,0,.04,0,.08.01.12.01.18,0,.35,0,.52,0,.09.03-.15,0,0,0,.04-.01.08-.02.12-.02.09-.04.18-.07.27-.1.31.12.7.44.77.34.08.66-.1.77-.44.52-1.65-.3-3.62-1.86-4.39-.29-.15-.69-.09-.86.22-.15.28-.09.7.22.86h0Z"/>
  <path class="cls-1" d="m62.85,63.24c-2.01,1-2.71,3.54-1.66,5.47.57,1.05,1.32,1.89,1.46,3.13.12,1.12-.17,2.24-.99,3.04-.58.56.31,1.44.88.88,1.59-1.54,1.72-4.02.79-5.95-.49-1.01-1.43-1.85-1.41-3.05.02-1.05.62-1.99,1.55-2.45.72-.36.09-1.44-.63-1.08h0Z"/>
  <path class="cls-1" d="m69.35,60.86c-1.79,1.18-2.75,3.25-2.44,5.38s2.29,4.7,1.15,6.91c-.37.71.71,1.35,1.08.63,1.07-2.08.1-4.2-.6-6.22-.36-1.05-.6-2.12-.3-3.21.27-.99.89-1.84,1.75-2.4.67-.44.04-1.52-.63-1.08h0Z"/>
  <path class="cls-1" d="m62.42,69.2s.15.06.19.09c.14.07.27.16.41.23.31.16.65.31.99.4.66.18,1.36.16,1.99-.11.54-.24.94-.67,1.23-1.17.25-.43.45-.95.78-1.31.55-.59-.33-1.47-.88-.88-.36.39-.6.86-.84,1.32-.21.39-.41.76-.84.92-.49.19-1.04.08-1.51-.12-.63-.26-1.12-.72-1.85-.57-.33.07-.52.46-.44.77.1.35.44.5.77.44h0Z"/>
  <path class="cls-1" d="m63.91,72.97c.29-.44.6-.86.94-1.27.31-.37.62-.76,1.1-.91.62-.19,2-.35,2.21.41s1.41.45,1.21-.33c-.4-1.51-2.22-1.6-3.49-1.35-.7.14-1.24.54-1.71,1.07s-.93,1.13-1.33,1.74c-.44.68.64,1.3,1.08.63h0Z"/>
  <path class="cls-1" d="m67.56,68.04c-.13.03-.26.08-.39.13s-.25.11-.37.19c-.13.09-.26.19-.38.3s-.22.24-.31.37c-.06.1-.08.2-.09.32,0,.11.03.22.09.32.11.18.32.32.54.31.32-.01.64,0,.95.04l-.17-.02c.07.01.15.02.22.04.08.03.17.03.25.01.08,0,.16-.03.23-.07.13-.08.25-.22.29-.37.04-.16.03-.34-.06-.48-.08-.13-.22-.26-.37-.29-.44-.08-.89-.12-1.34-.1l.54.94s.02-.03.03-.04l-.1.13c.09-.12.2-.23.32-.32l-.13.1c.13-.1.26-.18.41-.24l-.15.06c.1-.04.21-.07.31-.1.15-.03.3-.16.37-.29s.11-.33.06-.48-.14-.3-.29-.37c-.15-.08-.31-.1-.48-.06h0Z"/>
  <path class="cls-1" d="m64.57,69.43h-1.29c-.22.01-.43.13-.54.32-.06.1-.08.2-.09.32,0,.11.03.22.09.32.15.34.43.63.74.83.13.08.33.1.48.06s.3-.15.37-.29c.16-.31.07-.67-.22-.86-.03-.02-.07-.04-.1-.07l.13.1c-.09-.07-.17-.15-.24-.24l.1.13c-.07-.09-.13-.19-.17-.3l-.54.94h1.29c.16-.01.33-.08.44-.2.11-.11.19-.29.18-.44s-.06-.33-.18-.44-.27-.18-.44-.18h0Z"/>
  <path class="cls-1" d="m110.8,44.39c.16.43.81,1.3.36,1.66-.19.16-.47.2-.67.38s-.35.41-.47.65c-.54,1.11-.59,2.58-.57,3.8.05,2.6.85,5.19,2.38,7.29.47.64,1.55.02,1.08-.63-1.54-2.11-2.3-4.7-2.21-7.32.02-.64.09-1.27.23-1.9.06-.28.12-.64.32-.87s.48-.25.72-.41c1.12-.75.38-2.06.03-2.99-.29-.74-1.49-.42-1.21.33h0Z"/>
  <path class="cls-1" d="m111.77,47.13c.9-.28,1.73-.41,2.47.28.58.54,1.02,1.25,1.3,1.98.6,1.53.66,3.23.14,4.8-.25.77.96,1.09,1.21.33.64-1.94.49-4.09-.35-5.95-.41-.91-1.02-1.79-1.83-2.38-1-.72-2.16-.61-3.28-.26-.77.24-.44,1.44.33,1.21h0Z"/>
  <path class="cls-1" d="m112.09,44.63c1.43-.18,2.74.6,3.59,1.71.97,1.27,1.41,2.87,1.65,4.43.05.33.47.52.77.44.36-.1.49-.43.44-.77-.27-1.8-.85-3.59-2-5.02-1.05-1.3-2.73-2.25-4.44-2.03-.33.04-.62.26-.62.62,0,.3.29.67.62.62h0Z"/>
  <path class="cls-1" d="m114.23,61.22c1.25-2.96,1.37-6.35.21-9.36-.29-.74-1.49-.42-1.21.33,1.03,2.67,1.04,5.74-.08,8.39-.13.31-.09.67.22.86.26.16.72.09.86-.22h0Z"/>
  <path class="cls-1" d="m101.38,63.95c.12-.42.24-.85.37-1.27.07-.23.11-.82.35-.48.44.63-.16,1.92-.43,2.51-.74,1.61-1.48,3.04-1.56,4.85-.12,2.73.91,6.85,3.92,7.68.78.21,1.11-.99.33-1.21-1.81-.5-2.54-2.73-2.85-4.37-.21-1.07-.24-2.19-.01-3.26s.69-1.91,1.13-2.84c.6-1.25,1.48-3.45.09-4.53-1.67-1.3-2.27,1.59-2.55,2.58-.22.77.98,1.11,1.21.33h0Z"/>
  <path class="cls-1" d="m116.26,77.51c2.91-.12,5.61-2.17,7.44-4.31s3.03-4.7,3.46-7.46c.12-.79-1.08-1.13-1.21-.33-.38,2.48-1.42,4.84-3.03,6.78s-4.05,3.97-6.67,4.08c-.8.03-.81,1.28,0,1.25h0Z"/>
  <path class="cls-1" d="m121.59,78.25c3.64-1.13,6.54-4.27,7.3-8.02.16-.79-1.04-1.12-1.21-.33-.68,3.32-3.18,6.14-6.43,7.14-.77.24-.44,1.44.33,1.21h0Z"/>
  <path class="cls-1" d="m124.78,71.68s.13-.03.03-.02c-.13.01.08.02-.05,0s.03.01.03.01c0,0-.13-.07-.04-.01.03.02.06.03.09.05.05.03.07.08,0-.01.04.05.1.08.14.12.2.18.4.37.57.59.05.06.01,0-.02-.02.03.02.05.06.06.09.04.05.07.11.11.17s.06.11.09.17c.04.07-.05-.14,0,0,0,.03.02.05.03.08.02.07.04.14.05.21.02.1,0-.04,0-.04,0,0,0,.1,0,.11,0,.02,0,.19,0,.19,0,0,.03-.14,0-.04,0,.04-.02.08-.03.12-.09.31.11.69.44.77s.67-.1.77-.44c.23-.82-.1-1.61-.61-2.24-.2-.25-.44-.48-.68-.68-.35-.29-.83-.56-1.29-.37-.16.07-.28.13-.37.29-.08.13-.11.33-.06.48.09.29.45.57.77.44h0Z"/>
  <path class="cls-1" d="m125.63,69.53c.15.08.29.17.43.26-.12-.08.01,0,.03.03.03.03.06.05.09.08.06.06.12.12.18.18.03.03.06.06.08.09.01.01.1.12.04.05s.03.04.04.06c.02.03.05.07.07.1.09.15.18.3.25.46-.03-.08-.02-.05,0,.01.01.04.03.08.04.12.03.08.05.16.07.24s.04.16.05.24c.03.16,0-.09,0,0,0,.04,0,.08.01.12.01.18,0,.35,0,.52,0,.09.03-.15,0,0,0,.04-.01.08-.02.12-.02.09-.04.18-.07.27-.1.31.12.7.44.77.34.08.66-.1.77-.44.52-1.65-.3-3.62-1.86-4.39-.29-.15-.69-.09-.86.22-.15.28-.09.7.22.86h0Z"/>
  <path class="cls-1" d="m110.69,63.7c-2.01,1-2.71,3.54-1.66,5.47.57,1.05,1.32,1.89,1.46,3.13.12,1.12-.17,2.24-.99,3.04-.58.56.31,1.44.88.88,1.59-1.54,1.72-4.02.79-5.95-.49-1.01-1.43-1.85-1.41-3.05.02-1.05.62-1.99,1.55-2.45.72-.36.09-1.44-.63-1.08h0Z"/>
  <path class="cls-1" d="m117.19,61.32c-1.79,1.18-2.75,3.25-2.44,5.38s2.29,4.7,1.15,6.91c-.37.71.71,1.35,1.08.63,1.07-2.08.1-4.2-.6-6.22-.36-1.05-.6-2.12-.3-3.21.27-.99.89-1.84,1.75-2.4.67-.44.04-1.52-.63-1.08h0Z"/>
  <path class="cls-1" d="m110.25,69.66s.15.06.19.09c.14.07.27.16.41.23.31.16.65.31.99.4.66.18,1.36.16,1.99-.11.54-.24.94-.67,1.23-1.17.25-.43.45-.95.78-1.31.55-.59-.33-1.47-.88-.88-.36.39-.6.86-.84,1.32-.21.39-.41.76-.84.92-.49.19-1.04.08-1.51-.12-.63-.26-1.12-.72-1.85-.57-.33.07-.52.46-.44.77.1.35.44.5.77.44h0Z"/>
  <path class="cls-1" d="m111.75,73.44c.29-.44.6-.86.94-1.27.31-.37.62-.76,1.1-.91.62-.19,2-.35,2.21.41s1.41.45,1.21-.33c-.4-1.51-2.22-1.6-3.49-1.35-.7.14-1.24.54-1.71,1.07s-.93,1.13-1.33,1.74c-.44.68.64,1.3,1.08.63h0Z"/>
  <path class="cls-1" d="m115.4,68.51c-.13.03-.26.08-.39.13s-.25.11-.37.19c-.13.09-.26.19-.38.3s-.22.24-.31.37c-.06.1-.08.2-.09.32,0,.11.03.22.09.32.11.18.32.32.54.31.32-.01.64,0,.95.04l-.17-.02c.07.01.15.02.22.04.08.03.17.03.25.01.08,0,.16-.03.23-.07.13-.08.25-.22.29-.37.04-.16.03-.34-.06-.48-.08-.13-.22-.26-.37-.29-.44-.08-.89-.12-1.34-.1l.54.94s.02-.03.03-.04l-.1.13c.09-.12.2-.23.32-.32l-.13.1c.13-.1.26-.18.41-.24l-.15.06c.1-.04.21-.07.31-.1.15-.03.3-.16.37-.29s.11-.33.06-.48-.14-.3-.29-.37c-.15-.08-.31-.1-.48-.06h0Z"/>
  <path class="cls-1" d="m112.4,69.89h-1.29c-.22.01-.43.13-.54.32-.06.1-.08.2-.09.32,0,.11.03.22.09.32.15.34.43.63.74.83.13.08.33.1.48.06s.3-.15.37-.29c.16-.31.07-.67-.22-.86-.03-.02-.07-.04-.1-.07l.13.1c-.09-.07-.17-.15-.24-.24l.1.13c-.07-.09-.13-.19-.17-.3l-.54.94h1.29c.16-.01.33-.08.44-.2.11-.11.19-.29.18-.44s-.06-.33-.18-.44-.27-.18-.44-.18h0Z"/>
  <path class="cls-1" d="m93.39,143.5c.02.31.09.61.09.92,0,.26,0,.34-.23.42-.45.15-.77.27-1.08.67-.65.83-1.03,1.96-1.3,2.97-.56,2.09-.59,4.34.04,6.41.24.77,1.44.44,1.21-.33-.63-2.05-.54-4.26.12-6.29.17-.51.37-1.02.62-1.5.1-.19.2-.41.36-.56.17-.17.34-.13.56-.19,1.15-.31.93-1.64.88-2.52-.04-.8-1.29-.81-1.25,0h0Z"/>
  <path class="cls-1" d="m93.61,146.03c.34-.01.73-.04,1.05.1.27.12.44.38.58.63.29.55.41,1.22.44,1.84.06,1.35-.29,2.68-1.03,3.82-.44.68.64,1.31,1.08.63.92-1.42,1.35-3.21,1.16-4.89-.1-.83-.31-1.72-.81-2.41-.6-.82-1.5-1.01-2.47-.97-.8.03-.81,1.28,0,1.25h0Z"/>
  <path class="cls-1" d="m94.41,144.07c.99.15,1.69.95,2.03,1.85.47,1.25.44,2.65.25,3.95-.05.33.08.67.44.77.29.08.72-.1.77-.44.24-1.59.31-3.29-.32-4.8-.5-1.21-1.47-2.34-2.83-2.54-.33-.05-.67.08-.77.44-.08.3.1.72.44.77h0Z"/>
  <path class="cls-1" d="m92.28,157.78c1.6-2.1,2.43-4.82,2.29-7.45-.04-.8-1.29-.81-1.25,0,.12,2.44-.64,4.88-2.12,6.82-.21.27-.04.7.22.86.32.19.65.04.86-.22h0Z"/>
  <path class="cls-1" d="m82.15,157.33c.19-.32.38-.63.57-.95.05-.09.11-.18.16-.27.09-.09.06-.16-.1-.22-.02.02.01.34,0,.39-.1.65-.57,1.24-.98,1.73-.88,1.05-1.68,2.03-2.15,3.34-.78,2.16-1.12,5.86,1.1,7.32.67.44,1.3-.64.63-1.08-1.24-.82-1.12-2.99-.93-4.27.25-1.71,1.02-2.99,2.11-4.28.78-.93,1.89-2.32,1.36-3.61-.24-.6-.87-.92-1.48-.61-.66.33-1.03,1.29-1.39,1.89-.41.69.67,1.32,1.08.63h0Z"/>
  <path class="cls-1" d="m89.67,171.53c2.3.55,4.84-.61,6.66-1.96s3.31-3.17,4.26-5.26c.33-.73-.75-1.36-1.08-.63-.83,1.84-2.08,3.48-3.69,4.72s-3.83,2.4-5.82,1.93c-.78-.19-1.12,1.02-.33,1.21h0Z"/>
  <path class="cls-1" d="m93.43,173.27c3.14-.14,5.96-2.2,7.36-4.96.36-.72-.72-1.35-1.08-.63-1.2,2.36-3.57,4.22-6.28,4.34-.8.04-.81,1.29,0,1.25h0Z"/>
  <path class="cls-1" d="m97.49,168.63c-.07.02-.14.02-.2,0-.1-.05-.12-.05-.06-.02-.08-.07-.1-.08-.05-.03.02.02.03.03.05.05-.06-.08-.07-.09-.03-.04.01.02.03.04.04.06.03.04.05.09.08.14.05.1.11.2.15.3.01.03.02.05.04.08-.03-.08-.04-.09-.01-.03.02.05.04.09.05.14.03.1.06.21.08.31.01.07,0,.05,0-.05,0,.03,0,.05,0,.08,0,.05,0,.11,0,.16,0,.03,0,.05,0,.08,0,.07,0,.05,0-.05-.02.03-.02.12-.03.15,0,.03-.06.12-.05.15.04-.09.04-.1.01-.04-.01.02-.03.05-.04.07-.17.28-.07.7.22.86s.68.08.86-.22c.35-.59.34-1.32.1-1.95-.11-.29-.24-.59-.42-.85-.11-.17-.24-.32-.41-.43-.22-.14-.46-.15-.71-.12-.14.02-.3.17-.37.29-.08.13-.11.33-.06.48s.14.3.29.37c.16.08.31.09.48.06h0Z"/>
  <path class="cls-1" d="m98.36,167.07s.09.1.13.15c.06.06-.08-.12,0,0,.02.02.03.05.05.07.07.11.15.23.19.36-.04-.14.01.04.03.09.02.07.04.13.06.2s.03.14.04.21c.02.09-.01-.12,0-.03,0,.04,0,.08.01.12.01.13.01.27,0,.4,0,.04,0,.08,0,.12,0,.1,0-.02,0-.02-.01,0-.03.18-.04.21-.03.14-.08.27-.12.41-.03.08.07-.13,0,0-.01.03-.03.06-.04.08-.04.07-.08.14-.12.21-.17.28-.07.7.22.86.31.16.67.07.86-.22.77-1.23.67-3.02-.37-4.07-.23-.23-.66-.25-.88,0s-.25.64,0,.88h0Z"/>
  <path class="cls-1" d="m88.82,158.98c-.91.2-1.67.83-2.14,1.62-.53.9-.6,1.88-.37,2.88.21.91.43,1.72.21,2.66-.19.82-.62,1.58-1.36,2.01-.69.41-.06,1.49.63,1.08,1.51-.89,2.23-2.78,2.06-4.48-.09-.93-.61-1.88-.38-2.82.21-.83.83-1.55,1.68-1.74.79-.17.45-1.38-.33-1.21h0Z"/>
  <path class="cls-1" d="m94.14,158.45c-1.73.62-2.91,2.18-3.15,3.99s.56,4.2-.76,5.69c-.53.6.35,1.49.88.88,1.28-1.44,1.1-3.34,1.06-5.13-.02-.94.04-1.87.53-2.7.4-.69,1.02-1.26,1.78-1.53s.43-1.48-.33-1.21h0Z"/>
  <path class="cls-1" d="m87.17,163.9s-.11-.03-.1-.03c-.03-.03-.02-.02.03.03l.05.05c.08.08.15.17.22.25.19.2.4.38.62.54.44.32,1.01.5,1.56.43s1-.34,1.38-.73c.16-.16.3-.33.45-.49.07-.08.14-.15.22-.23.04-.04.08-.07.12-.1-.08.06.06-.04.07-.05.28-.19.4-.55.22-.86-.16-.28-.57-.41-.86-.22-.38.25-.66.57-.96.91-.06.07-.13.14-.19.21-.04.04-.09.08-.14.13-.03.02-.07.06-.02.02-.08.06-.17.12-.26.15-.05.02-.13.03-.19.03-.18,0-.36-.04-.49-.1-.21-.11-.32-.19-.46-.33-.41-.38-.68-.82-1.29-.86-.34-.02-.62.3-.62.62,0,.36.29.6.62.62h0Z"/>
  <path class="cls-1" d="m87.47,167.25c.29-.28.6-.54.93-.78.17-.12.34-.25.52-.35.14-.08.28-.14.4-.15.2-.02.36,0,.52.04.15.03.39.09.48.13.09.04.18.09.25.15-.07-.06.13.15.06.06.03.04.05.07.07.11-.02-.05-.01-.04.01.04.02.08.02.09.01.03,0,.05,0,.09,0,.14-.02.34.3.62.62.62.35,0,.61-.29.62-.62.06-1.32-1.32-1.89-2.43-1.95-.6-.03-1.11.2-1.59.53s-.94.71-1.38,1.12c-.25.23-.23.65,0,.88.25.25.64.23.88,0h0Z"/>
  <path class="cls-1" d="m91.17,163.87c-.14,0-.27.01-.41.03-.09.01-.18.03-.26.07-.13.05-.26.1-.38.17s-.24.16-.34.25c-.08.08-.13.17-.16.28-.03.11-.03.22,0,.33.06.21.23.39.44.44.19.05.38.11.57.19l-.15-.06c.09.04.18.08.27.13.15.08.32.11.48.06.14-.04.3-.15.37-.29.08-.15.12-.32.06-.48-.05-.15-.14-.3-.29-.37-.31-.16-.65-.29-.99-.38l.28,1.04s.03-.03.05-.04l-.13.1c.1-.07.2-.14.32-.19l-.15.06c.12-.05.24-.08.36-.1l-.17.02c.08,0,.15-.01.23,0,.16,0,.33-.07.44-.18s.19-.29.18-.44-.06-.33-.18-.44-.27-.17-.44-.18h0Z"/>
  <path class="cls-1" d="m88.69,164.35l-.94-.27c-.11-.03-.22-.03-.33,0-.08.02-.15.06-.21.11-.07.04-.12.1-.16.18-.06.1-.08.2-.09.32.01.17.04.34.1.5.04.1.08.2.13.29s.12.18.19.26c.06.06.12.1.2.13.07.04.15.06.24.05.15,0,.34-.07.44-.18s.19-.28.18-.44l-.02-.17c-.03-.11-.08-.2-.16-.28,0,0-.01-.02-.02-.02l.1.13c-.05-.07-.1-.14-.13-.23l.06.15c-.04-.09-.06-.19-.08-.29l.02.17s0-.04,0-.06l-.79.6.94.27c.16.04.34.02.48-.06.13-.08.25-.22.29-.37.04-.16.03-.34-.06-.48s-.21-.24-.37-.29h0Z"/>
</svg>