<?xml version="1.0" encoding="UTF-8"?>
<svg id="Layer_1" data-name="Layer 1" xmlns="http://www.w3.org/2000/svg" viewBox="0 0 119.87 178.31">
  <defs>
    <style>
      .cls-1, .cls-2 {
        fill: #231f20;
      }

      .cls-1, .cls-2, .cls-3, .cls-4, .cls-5 {
        stroke-miterlimit: 10;
      }

      .cls-1, .cls-3 {
        stroke: #ed1c24;
      }

      .cls-1, .cls-4 {
        stroke-width: .25px;
      }

      .cls-2, .cls-4, .cls-5 {
        stroke: #231f20;
      }

      .cls-2, .cls-5 {
        stroke-width: .5px;
      }

      .cls-3 {
        fill: #ed1c24;
      }

      .cls-4, .cls-5 {
        fill: none;
      }
    </style>
  </defs>
  <path class="cls-2" d="m68.8,65.85s2.26-27.01,15.95-36.42c0,0,12.2,6.24,17.17,36.42h14.63"/>
  <path class="cls-5" d="m37,29.43S43.97,3.19,59.47,4.45c15.5,1.26,25.28,24.98,25.28,24.98"/>
  <line class="cls-5" x1="101.93" y1="65.85" x2="68.8" y2="65.85"/>
  <path class="cls-5" d="m15.73,115.62s40.33,37.35,90.3,0"/>
  <path class="cls-2" d="m75.82,130.44s-4.62,36.71-8.84,39.39c-4.22,2.67-10.27,0-10.27,0-4.67-.78-10.78-39.13-10.78-39.13l29.89-.25Z"/>
  <line class="cls-1" x1="85.03" y1="30.03" x2="85.86" y2="30.79"/>
  <line class="cls-1" x1="86.54" y1="31.36" x2="87.37" y2="32.12"/>
  <line class="cls-1" x1="87.95" y1="32.56" x2="88.78" y2="33.32"/>
  <line class="cls-1" x1="89.26" y1="33.8" x2="89.94" y2="34.7"/>
  <line class="cls-1" x1="90.43" y1="35.41" x2="91.08" y2="36.33"/>
  <line class="cls-1" x1="91.53" y1="37.19" x2="92.15" y2="38.13"/>
  <line class="cls-1" x1="92.59" y1="38.65" x2="93.12" y2="39.64"/>
  <line class="cls-1" x1="93.4" y1="40.15" x2="93.99" y2="41.11"/>
  <line class="cls-1" x1="94.43" y1="41.69" x2="94.9" y2="42.72"/>
  <line class="cls-1" x1="95.2" y1="43.52" x2="95.66" y2="44.54"/>
  <line class="cls-1" x1="95.97" y1="45.3" x2="96.43" y2="46.32"/>
  <line class="cls-1" x1="96.69" y1="47.12" x2="97.15" y2="48.15"/>
  <line class="cls-1" x1="97.41" y1="49.17" x2="97.87" y2="50.19"/>
  <line class="cls-1" x1="98.04" y1="51.06" x2="98.5" y2="52.09"/>
  <line class="cls-1" x1="98.75" y1="52.76" x2="99.05" y2="53.85"/>
  <line class="cls-1" x1="99.21" y1="54.56" x2="99.51" y2="55.65"/>
  <line class="cls-1" x1="99.77" y1="56.64" x2="100.08" y2="57.73"/>
  <line class="cls-1" x1="100.28" y1="58.81" x2="100.58" y2="59.89"/>
  <line class="cls-1" x1="100.73" y1="60.88" x2="101.03" y2="61.97"/>
  <line class="cls-1" x1="101.03" y1="62.79" x2="101.33" y2="63.87"/>
  <line class="cls-1" x1="101.33" y1="64.47" x2="101.64" y2="65.56"/>
  <line class="cls-1" x1="99.86" y1="65.71" x2="100.99" y2="65.71"/>
  <line class="cls-1" x1="97.77" y1="65.7" x2="98.9" y2="65.71"/>
  <line class="cls-1" x1="96.07" y1="65.71" x2="97.2" y2="65.71"/>
  <line class="cls-1" x1="94.27" y1="65.71" x2="95.39" y2="65.71"/>
  <line class="cls-1" x1="92.28" y1="65.71" x2="93.4" y2="65.71"/>
  <line class="cls-1" x1="90.5" y1="65.71" x2="91.62" y2="65.71"/>
  <line class="cls-1" x1="88.7" y1="65.71" x2="89.82" y2="65.71"/>
  <line class="cls-1" x1="86.55" y1="65.71" x2="87.68" y2="65.71"/>
  <line class="cls-1" x1="84.37" y1="65.71" x2="85.5" y2="65.71"/>
  <line class="cls-1" x1="82.01" y1="65.7" x2="83.14" y2="65.71"/>
  <line class="cls-1" x1="80.15" y1="65.7" x2="81.28" y2="65.71"/>
  <line class="cls-1" x1="78.14" y1="65.7" x2="79.26" y2="65.7"/>
  <line class="cls-1" x1="76.31" y1="65.69" x2="77.44" y2="65.69"/>
  <line class="cls-1" x1="74.39" y1="65.69" x2="75.51" y2="65.69"/>
  <line class="cls-1" x1="72.5" y1="65.69" x2="73.63" y2="65.69"/>
  <line class="cls-1" x1="70.68" y1="65.69" x2="71.81" y2="65.7"/>
  <line class="cls-1" x1="69.05" y1="65.71" x2="70.18" y2="65.71"/>
  <line class="cls-1" x1="69.1" y1="65.07" x2="69.24" y2="63.95"/>
  <line class="cls-1" x1="69.36" y1="63.28" x2="69.5" y2="62.16"/>
  <line class="cls-1" x1="69.61" y1="61.47" x2="69.76" y2="60.35"/>
  <line class="cls-1" x1="70.04" y1="59.57" x2="70.18" y2="58.45"/>
  <line class="cls-1" x1="70.25" y1="57.74" x2="70.53" y2="56.65"/>
  <line class="cls-1" x1="70.63" y1="56.05" x2="70.91" y2="54.96"/>
  <line class="cls-1" x1="71.11" y1="54.12" x2="71.39" y2="53.03"/>
  <line class="cls-1" x1="71.58" y1="52.28" x2="71.86" y2="51.19"/>
  <line class="cls-1" x1="72.17" y1="50.53" x2="72.45" y2="49.44"/>
  <line class="cls-1" x1="72.82" y1="48.73" x2="73.1" y2="47.64"/>
  <line class="cls-1" x1="73.41" y1="46.91" x2="73.69" y2="45.82"/>
  <line class="cls-1" x1="74.03" y1="45.32" x2="74.47" y2="44.28"/>
  <line class="cls-1" x1="74.78" y1="43.71" x2="75.16" y2="42.65"/>
  <line class="cls-1" x1="75.5" y1="42.02" x2="75.88" y2="40.96"/>
  <line class="cls-1" x1="76.19" y1="40.47" x2="76.74" y2="39.49"/>
  <line class="cls-1" x1="77.15" y1="38.83" x2="77.69" y2="37.84"/>
  <line class="cls-1" x1="78.21" y1="37.14" x2="78.75" y2="36.15"/>
  <line class="cls-1" x1="79.21" y1="35.56" x2="79.82" y2="34.62"/>
  <line class="cls-1" x1="80.11" y1="34.22" x2="80.86" y2="33.38"/>
  <line class="cls-1" x1="81.26" y1="32.83" x2="82" y2="31.98"/>
  <line class="cls-1" x1="82.62" y1="31.64" x2="83.4" y2="30.83"/>
  <line class="cls-1" x1="83.83" y1="30.56" x2="84.66" y2="29.79"/>
  <path class="cls-2" d="m21.05,65.82s2.26-27.01,15.95-36.42c0,0,12.2,6.24,17.17,36.42h14.63"/>
  <line class="cls-5" x1="54.17" y1="65.82" x2="21.05" y2="65.82"/>
  <line class="cls-1" x1="37.28" y1="30" x2="38.11" y2="30.76"/>
  <line class="cls-1" x1="38.79" y1="31.33" x2="39.62" y2="32.09"/>
  <line class="cls-1" x1="40.2" y1="32.53" x2="41.03" y2="33.29"/>
  <line class="cls-1" x1="41.51" y1="33.77" x2="42.18" y2="34.67"/>
  <line class="cls-1" x1="42.68" y1="35.38" x2="43.33" y2="36.3"/>
  <line class="cls-1" x1="43.78" y1="37.16" x2="44.4" y2="38.1"/>
  <line class="cls-1" x1="44.84" y1="38.62" x2="45.37" y2="39.61"/>
  <line class="cls-1" x1="45.64" y1="40.12" x2="46.23" y2="41.08"/>
  <line class="cls-1" x1="46.68" y1="41.66" x2="47.15" y2="42.69"/>
  <line class="cls-1" x1="47.45" y1="43.49" x2="47.91" y2="44.51"/>
  <line class="cls-1" x1="48.22" y1="45.27" x2="48.68" y2="46.29"/>
  <line class="cls-1" x1="48.93" y1="47.09" x2="49.4" y2="48.12"/>
  <line class="cls-1" x1="49.66" y1="49.13" x2="50.12" y2="50.16"/>
  <line class="cls-1" x1="50.29" y1="51.03" x2="50.75" y2="52.06"/>
  <line class="cls-1" x1="51" y1="52.73" x2="51.3" y2="53.81"/>
  <line class="cls-1" x1="51.46" y1="54.53" x2="51.76" y2="55.62"/>
  <line class="cls-1" x1="52.02" y1="56.61" x2="52.32" y2="57.7"/>
  <line class="cls-1" x1="52.52" y1="58.78" x2="52.83" y2="59.86"/>
  <line class="cls-1" x1="52.98" y1="60.85" x2="53.28" y2="61.94"/>
  <line class="cls-1" x1="53.28" y1="62.76" x2="53.58" y2="63.84"/>
  <line class="cls-1" x1="53.58" y1="64.44" x2="53.88" y2="65.53"/>
  <line class="cls-1" x1="52.11" y1="65.67" x2="53.24" y2="65.68"/>
  <line class="cls-1" x1="50.02" y1="65.67" x2="51.15" y2="65.68"/>
  <line class="cls-1" x1="48.32" y1="65.68" x2="49.45" y2="65.68"/>
  <line class="cls-1" x1="46.52" y1="65.67" x2="47.64" y2="65.68"/>
  <line class="cls-1" x1="44.52" y1="65.68" x2="45.65" y2="65.68"/>
  <line class="cls-1" x1="42.75" y1="65.67" x2="43.87" y2="65.68"/>
  <line class="cls-1" x1="40.95" y1="65.67" x2="42.07" y2="65.68"/>
  <line class="cls-1" x1="38.8" y1="65.67" x2="39.93" y2="65.68"/>
  <line class="cls-1" x1="36.62" y1="65.67" x2="37.74" y2="65.68"/>
  <line class="cls-1" x1="34.26" y1="65.67" x2="35.39" y2="65.68"/>
  <line class="cls-1" x1="32.4" y1="65.67" x2="33.52" y2="65.67"/>
  <line class="cls-1" x1="30.38" y1="65.67" x2="31.51" y2="65.67"/>
  <line class="cls-1" x1="28.56" y1="65.66" x2="29.69" y2="65.66"/>
  <line class="cls-1" x1="26.63" y1="65.66" x2="27.76" y2="65.66"/>
  <line class="cls-1" x1="24.75" y1="65.66" x2="25.88" y2="65.66"/>
  <line class="cls-1" x1="22.93" y1="65.66" x2="24.05" y2="65.66"/>
  <polyline class="cls-4" points="22.43 65.68 21.3 65.68 5.86 65.53"/>
  <line class="cls-1" x1="21.35" y1="65.04" x2="21.49" y2="63.92"/>
  <line class="cls-1" x1="21.61" y1="63.25" x2="21.75" y2="62.13"/>
  <line class="cls-1" x1="21.86" y1="61.44" x2="22" y2="60.32"/>
  <line class="cls-1" x1="22.28" y1="59.54" x2="22.43" y2="58.42"/>
  <line class="cls-1" x1="22.49" y1="57.71" x2="22.78" y2="56.62"/>
  <line class="cls-1" x1="22.88" y1="56.02" x2="23.16" y2="54.93"/>
  <line class="cls-1" x1="23.36" y1="54.09" x2="23.64" y2="53"/>
  <line class="cls-1" x1="23.83" y1="52.25" x2="24.11" y2="51.16"/>
  <line class="cls-1" x1="24.42" y1="50.5" x2="24.7" y2="49.41"/>
  <line class="cls-1" x1="25.07" y1="48.7" x2="25.35" y2="47.61"/>
  <line class="cls-1" x1="25.66" y1="46.88" x2="25.94" y2="45.79"/>
  <line class="cls-1" x1="26.28" y1="45.29" x2="26.72" y2="44.25"/>
  <line class="cls-1" x1="27.03" y1="43.68" x2="27.41" y2="42.62"/>
  <line class="cls-1" x1="27.75" y1="41.99" x2="28.13" y2="40.93"/>
  <line class="cls-1" x1="28.44" y1="40.44" x2="28.98" y2="39.46"/>
  <line class="cls-1" x1="29.4" y1="38.8" x2="29.94" y2="37.81"/>
  <line class="cls-1" x1="30.46" y1="37.1" x2="31" y2="36.12"/>
  <line class="cls-1" x1="31.46" y1="35.53" x2="32.07" y2="34.59"/>
  <line class="cls-1" x1="32.36" y1="34.19" x2="33.11" y2="33.35"/>
  <line class="cls-1" x1="33.51" y1="32.8" x2="34.25" y2="31.95"/>
  <line class="cls-1" x1="34.87" y1="31.61" x2="35.65" y2="30.8"/>
  <line class="cls-1" x1="36.08" y1="30.53" x2="36.91" y2="29.76"/>
  <line class="cls-1" x1="75.5" y1="131.75" x2="75.64" y2="130.64"/>
  <line class="cls-1" x1="75.25" y1="133.38" x2="75.39" y2="132.26"/>
  <line class="cls-1" x1="74.98" y1="135.4" x2="75.12" y2="134.28"/>
  <line class="cls-1" x1="74.66" y1="137.54" x2="74.8" y2="136.42"/>
  <line class="cls-1" x1="74.36" y1="139.83" x2="74.51" y2="138.71"/>
  <line class="cls-1" x1="74.04" y1="141.81" x2="74.18" y2="140.69"/>
  <line class="cls-1" x1="73.69" y1="143.88" x2="73.83" y2="142.77"/>
  <line class="cls-1" x1="73.35" y1="146.02" x2="73.49" y2="144.9"/>
  <line class="cls-1" x1="72.94" y1="147.92" x2="73.11" y2="146.8"/>
  <line class="cls-1" x1="72.63" y1="149.76" x2="72.81" y2="148.65"/>
  <line class="cls-1" x1="72.31" y1="151.84" x2="72.48" y2="150.73"/>
  <line class="cls-1" x1="71.86" y1="153.86" x2="72.04" y2="152.75"/>
  <line class="cls-1" x1="71.46" y1="155.86" x2="71.64" y2="154.75"/>
  <line class="cls-1" x1="71.05" y1="157.97" x2="71.23" y2="156.86"/>
  <line class="cls-1" x1="70.57" y1="160.15" x2="70.75" y2="159.03"/>
  <line class="cls-1" x1="70.04" y1="162.11" x2="70.32" y2="161.02"/>
  <line class="cls-1" x1="69.47" y1="164.16" x2="69.75" y2="163.07"/>
  <line class="cls-1" x1="68.86" y1="166.16" x2="69.14" y2="165.07"/>
  <line class="cls-1" x1="68.12" y1="167.91" x2="68.55" y2="166.87"/>
  <line class="cls-1" x1="67.18" y1="169.34" x2="67.76" y2="168.37"/>
  <line class="cls-1" x1="65.58" y1="170.18" x2="66.64" y2="169.78"/>
  <line class="cls-1" x1="63.97" y1="170.58" x2="65.05" y2="170.25"/>
  <line class="cls-1" x1="62.12" y1="170.61" x2="63.24" y2="170.69"/>
  <line class="cls-1" x1="60.32" y1="170.55" x2="61.43" y2="170.68"/>
  <line class="cls-1" x1="58.48" y1="170.18" x2="59.6" y2="170.33"/>
  <line class="cls-1" x1="56.73" y1="169.63" x2="57.81" y2="169.94"/>
  <line class="cls-1" x1="55.52" y1="168.48" x2="56.36" y2="169.23"/>
  <line class="cls-1" x1="54.65" y1="166.91" x2="55.25" y2="167.86"/>
  <line class="cls-1" x1="53.88" y1="165.1" x2="54.33" y2="166.13"/>
  <line class="cls-1" x1="53.18" y1="163.32" x2="53.63" y2="164.36"/>
  <path class="cls-3" d="m97.38,63.19l1.07-1.06s1.58-1.99-.88-.88c0,0-1.01-.83-1.2-.49s.38,1.86,1.01,2.43Z"/>
  <path class="cls-3" d="m49.55,134.66l.73-1.32s.95-2.36-1.1-.59c0,0-1.2-.51-1.29-.13s.89,1.68,1.66,2.05Z"/>
</svg>