<?xml version="1.0" encoding="UTF-8"?>
<svg id="Layer_1" data-name="Layer 1" xmlns="http://www.w3.org/2000/svg" xmlns:xlink="http://www.w3.org/1999/xlink" viewBox="0 0 552.81 181.85">
  <defs>
    <style>
      .cls-1 {
        stroke-width: 3px;
      }

      .cls-1, .cls-2, .cls-3, .cls-4, .cls-5, .cls-6 {
        fill: none;
        stroke: #83a9b5;
        stroke-miterlimit: 10;
      }

      .cls-2 {
        stroke-width: 6px;
      }

      .cls-7 {
        fill: #b7ab92;
      }

      .cls-8 {
        fill: #ac2330;
      }

      .cls-3 {
        stroke-width: .75px;
      }

      .cls-4 {
        stroke-width: 2px;
      }

      .cls-5 {
        stroke-width: 4px;
      }

      .cls-9 {
        fill: url(#Pearl);
        opacity: .4;
      }
    </style>
    <radialGradient id="Pearl" cx="285.39" cy="73.31" fx="285.39" fy="73.31" r="170.16" gradientTransform="translate(353.76 -197.52) rotate(90) scale(.99 1.05)" gradientUnits="userSpaceOnUse">
      <stop offset="0" stop-color="#fffeee"/>
      <stop offset=".28" stop-color="#f3f3e9"/>
      <stop offset=".75" stop-color="#d7dade"/>
      <stop offset=".88" stop-color="#dcd8d4"/>
    </radialGradient>
  </defs>
  <ellipse class="cls-2" cx="276.52" cy="87.19" rx="80.55" ry="231.67" transform="translate(183.64 361.85) rotate(-88.82)"/>
  <ellipse class="cls-5" cx="281.18" cy="85.24" rx="222.28" ry="75.78" transform="translate(-1.46 4.98) rotate(-1.01)"/>
  <ellipse class="cls-5" cx="290.04" cy="86.95" rx="214.54" ry="73.91" transform="translate(-1.49 5.14) rotate(-1.01)"/>
  <ellipse class="cls-4" cx="300.02" cy="88.6" rx="204.59" ry="72.09" transform="translate(-1.52 5.31) rotate(-1.01)"/>
  <ellipse class="cls-5" cx="307.92" cy="91.44" rx="196.74" ry="69.11" transform="translate(-1.57 5.45) rotate(-1.01)"/>
  <ellipse class="cls-1" cx="307.92" cy="91.44" rx="196.74" ry="69.11" transform="translate(-1.57 5.45) rotate(-1.01)"/>
  <ellipse class="cls-6" cx="314.15" cy="93.36" rx="183.46" ry="64.42" transform="translate(-1.6 5.56) rotate(-1.01)"/>
  <ellipse class="cls-2" cx="322.7" cy="97.95" rx="168.8" ry="62.71" transform="translate(-1.68 5.71) rotate(-1.01)"/>
  <ellipse class="cls-5" cx="338.93" cy="100.56" rx="164.81" ry="56.78" transform="translate(-1.72 6) rotate(-1.01)"/>
  <ellipse class="cls-4" cx="351.27" cy="102.93" rx="154" ry="51.3" transform="translate(-1.76 6.22) rotate(-1.01)"/>
  <ellipse class="cls-5" cx="355.71" cy="105.65" rx="138.8" ry="48.5" transform="translate(-1.81 6.3) rotate(-1.01)"/>
  <ellipse class="cls-4" cx="360.19" cy="108.34" rx="124.97" ry="41.92" transform="translate(-1.86 6.38) rotate(-1.01)"/>
  <ellipse class="cls-5" cx="372.74" cy="112.45" rx="119.01" ry="39.95" transform="translate(-1.93 6.6) rotate(-1.01)"/>
  <ellipse class="cls-3" cx="385.91" cy="112.98" rx="113.62" ry="34.86" transform="translate(-1.94 6.83) rotate(-1.01)"/>
  <ellipse class="cls-5" cx="385.91" cy="112.98" rx="98.17" ry="29.38" transform="translate(-1.94 6.83) rotate(-1.01)"/>
  <ellipse class="cls-4" cx="390.61" cy="114.04" rx="87.65" ry="25.65" transform="translate(-1.95 6.92) rotate(-1.01)"/>
  <ellipse class="cls-5" cx="390.61" cy="114.04" rx="76.49" ry="22.33" transform="translate(-1.95 6.92) rotate(-1.01)"/>
  <ellipse class="cls-1" cx="390.61" cy="114.04" rx="61.24" ry="18.8" transform="translate(-1.95 6.92) rotate(-1.01)"/>
  <ellipse class="cls-6" cx="390.61" cy="114.04" rx="49.28" ry="15.27" transform="translate(-1.95 6.92) rotate(-1.01)"/>
  <ellipse class="cls-7" cx="390.39" cy="114.04" rx="40.07" ry="11.55" transform="translate(-1.95 6.91) rotate(-1.01)"/>
  <ellipse class="cls-9" cx="276.55" cy="85.32" rx="73.69" ry="228.2" transform="translate(180.11 358.2) rotate(-87.68)"/>
  <g>
    <path class="cls-8" d="m114.57,139.65c-1.95-.04-2.56.49-3.72.16-1.69-.43-5.17-2.14-7.01-2.15-1.06-.95-3.58-1.42-4.95-1.58-.09-.12-.19-.24-.28-.36-.85-1.07-2.6-1.33-3.55-1.13-2.02-1.98-4.55-3.42-7.32-5.83-.5-.46-.68-1.34-1.41-1.9-2.07-1.71-3.31-4.8-5.6-5.58.34-.43.11-1.44-.47-2.29-.33-.48-.81-.95-1.41-1.13-.25-.36.49-.45.47-.71-1.13-1.43-1.38-3.24-2.64-5.2-.39-.61-.93-1.2-1.46-1.79,2.37-.75-.54-2.87,1.24-4.09.21-.17,1.01-.15,1.29-.2.99-.42.45-1.57,2.41-.91.35-.19.12-.57.77-.53.51.34.23.38.6.73.21-.17.13-.29.06-.42,2.21,1.59,3.65,3.17,5.17,4.61.24.38-.05.42-.25.58,1.4,2.95,2.76,5.47,4.36,7.83,2.27,3.35,5.02,6.36,9.07,9.81.29-.02.25-.28.77-.19,1.58.91,4.49,2.39,5.91,1.9,3.24.95,6.66,1,9.37.56-.28-.38-.09-.53-.23-.92,3.08.48,2.46-2.17.44-4.48,1.28-.64-.28-2.71-1.41-4.41-1.04-1.57-.55-2.59-2.22-3.83.38-.31.34-.59.09-.98-.59-.93-2.93-2.09-2.42-3.13-.19-.54-.63-.08-.82-.62.05-.15.03-.43-.14-.69-.58-.93-2.73-2.52-3.37-3.58-.16-.26-.21-.83-.52-1.36-.24-.4-.53-.65-1.38-.83-.51-.36-.3-1.25-.9-1.03-3.03-4.61-7.93-8.95-11.69-9.77-1.32.07-1.42-1.21-2.53-1.6-.91-.28-1.46.38-2.43.26-.98-.12-2.24-1.62-3.29-1.3-.12-.22-.23-.44-.35-.65-.09.02-.19.03-.28.05-.84.15-1.74-.4-3.07-.3-.28-.23-.48-.62-.76-.86-.21.18-.35.21-.63.26-.7.13-1.46-.44-2.02-.62-1.04-.51-2.32.58-2.86-.45-.14.03-.56.11-.57.39-1.1-.92-2.37-.38-3.24-1.76-.28.06-.22.18-.5.24-.04-.09-.09-.17-.13-.26-.52-1.02-2.43-.49-3.46-.98.23-.47-.67-.7-.44-1.17-.27-.22-.55-.16-.96-.36-.24-.79-.44-.89-1.19-1.15-.03-.37-.05-.74-.08-1.11-.19-.38-.4-.19-.83-.1-.04-.08-.08-.17-.12-.25-.62-1.27-1.76-1.72-2.32-2.58-.48-.03-.6-.28-.78-.67-.18-.38-.41-.89-.89-.92-.04-.42.19-.61.21-.9-.91-.63-.73-1.95-1.12-2.85-.17-.38-.48-.73-.87-.92-.34-2.9-1.12-4.42-1.83-6.52.18-1.05.14-3.05-.32-4.65.46.02.36-.24.77-.36-.33-4.81,3.11-8.73,4.99-11.94.09-.03.18-.05.27-.08.68-.2.49-.74.81-1.12.41-.12.41.33.54.29.45-.43,1.08-.76,1.9-.99,1.22-.35,2.63-.6,3.76-.77.14-.04.27-.08.41-.11.68-.19,1.27-.66,1.81-.81.59-.01,1.41.66,2.01.65.59-.16,1.18-.32,1.77-.48,1.09-.3,1.95-.38,2.15.63,3.98-.92,6.57,3.46,9.75,3.61.02.05.03.09.05.14.21.56.63.92.24,1.47,2.17.24,2.28,2.52,3.04,3.72.46.81,2.59,1.71,3.04,2.84.11.28.14.73-.29,1.13.02.05.04.09.06.14.17.42.79.13,1.2.04-.02.31.03.45.15.73.23.56.75.75.98,1.32,1.29,2.79-1.27,5.44-3.73,5.95-.55.11-1.15.09-1.62.04-.67-1.21-2.37-1-3.51-1.2.21-.2-.41-.96-.14-1.02-2.03-.9-2.87-3.26-3.91-5.12-1.1-2-2.51-2.56-3.81-3.59-.57-.31-.23-.99-1.02-1.1-.09.02-.18.05-.27.07-.68.17-1.52,1.13-1.82-.44-.46-.03-1.37.35-1.49-.37-.14.04-.27.07-.41.11-.68.18-.94.69-1.25,1.07-1.07,1.91-5.34,1.4-4.65,4.32-1.83,1.51-1.64,4.23-.75,6.34-.28.07-.55.14-.63.3.86,1.68,1.26,2.6,2.11,3.84-.08.16-.02.3.09.56.35.79,1.69,2.07,2.14,2.4-.08.16-.16.33-.36.23,1.25,2.75,2.63,4.31,6.13,4.3-.01.29.05.42.11.56.57,1.18,2.77,1.31,3.61.85.13.26-.69.14-.36.51,3.14,1.1,8.23.7,10.61,2.47.48.06.35-.21.62-.26,3.42,2.01,7.32,2.37,10.43,5.26.34.09.13-.32.48-.22,1.33,1.7,3.67,2.52,5.49,4.02.42.23.45,1.11,1.01,1.62,1.34,1.13,2.72,1.53,3.24,2.49.29.55,2.7,3.31,3.57,4.08.37.39,1.13.74,1.5,1.13.31.55.22,1.14.53,1.69.16.27.45.53,1.14.74.24.41.05.58.07.86.32.54.85.49,1.3,1.02-.62-.08-.24.32-.3.47.88.77,1.28,1.46,1.72,2.42.65,1.8,3.75,4.81,5.2,7.11.51.81.8,1.5.62,2.08,1.4,2.44,4.36,6.31,4.05,8.26.14.41.44.25.81.78-.84.18,0,.41.15.82.93,2.15-.33,2.89,0,4.5.16.8-.89,1.25-.99,2.06-.18,1.07.51,1.45-.12,2.26-.81.95-.77,1.74-2.05,2.43-1.29.69-2.64,2.01-5.17,1.71-1.87-.2-4.77-1.11-6.96-1.27Z"/>
    <path class="cls-8" d="m167.97,139.22c-.59,0-.9.42-1.59.28-1.22-.43-2.67-2.13-3.37-.99-1.61-1.56-3.14-2.82-4.51-2.66-2.26-1.96-3.69-4.21-6.13-5.28.05-.72-1.48-1.53-.61-1.56-3.3-3.18-6.83-8.95-9.32-12.31.34.12-.54-.7.13-.45-.29-.27-.5-.85-1.01-.81.77-.49-.78-1.56-1.42-3.14-.41-.71-.22-1.32-.33-1.75-.4-.71-1.52-1.51-2-2.36-.05-.09-.11-.19-.16-.29-.47-.85-.69-1.73-1.08-2.45-.39-.71-.75-1.13-1.55-1.35-.18-.58-.41-1.01-.56-1.3-.23-.43-.46-.86-.56-1.3-.02-.3-.41-.26-.67-.23-.73-1.88-2.18-4.14-1.39-5.29-1.97-1.14-2.49-3.82-4.21-5.9.26-.03.33.11.6.08-.07-.14-.14-.29-.01-.3-.48-.4-.83-1.12-1.18-1.84-1.19-2.45-1.76-5.76-2.81-7.47-.33-.42-.73-.67-.93-1.1-.13-.29-.13-.6.07-1.09-.59-.38-.92-.79-1.18-1.37-.78-1.74-.2-4.02-1.68-5.5-1.04-.77-2.1-.9-3.04-.75-.94.16-1.89.63-2.9.95-.74.28-1.75.61-2.83.79-.4.07-.94.16-1.41.09-2.81-.44-4.39-3.37-5.23-5.37,1.29-.4.77-2,1.35-2.73.04,0,.09-.02.13-.03.54-.1,1.53.18,1.25-.86.85.31,1.18-.69,2.09-.24-.37-.55.25-.83,1.19-1,.95-.18,1.95-.21,2.89-.38.94-.17,1.56-.44,1.66-.93-.02-.05-.04-.1-.06-.15-.17-.44-.78-1.27-.82-1.74.1-.49.09-1.28-.13-1.87-.22-.59-.66-.98-1.45-1.14-.8-1.74-.93-4.08-1.62-6-.42-1.18-1-2.01-2.16-2.41.2-.68-.44-.86-.55-1.15-.08-1.09.7-2.21.36-3.25-.44-1.33-1.37-1.93-1.39-3.35-.03-1.9,1.06-3.11,2.79-3.65.36-.24.95-1.17,2.05-.93.96.26,5.13,2.91,5.74,3.92.03.1.06.2.1.3.29.91-.19,2.13.2,3.33.21,1.08.73,1.78.85,2.56.01.48-.33,1.18-.22,1.49.03.1.07.2.1.3.26.75.73,1.3.99,2.05.16.45.23,1.08-.1,1.78,2.03.9,3.7,6.66,5.32,6.38.27-.05.69-.44,1.01-1.14.51.23,1.48.54,2.05.13.27.76.57.38,1.08.62.05-.65.29-1.17.96-1.29.05.26.09.52.14.78.32.11.59.06.86.02.67-.11,1.15-.35,1.95-.49.4-.07.94-.15,1.63.21.24.28.65,1.03,1.02,1.29,1.15.46,1.65-.1,2.27.45.62.55,2.05,2.59,2.39,3.51-.02.33.14,3.04-.14,3.41-.15.34-.68.42-1.21.5-.18.03-.35.05-.53.08-.92.14-1.66.41-1.13,1.77-.72-.05-1.06.16-1.39.37-.5-.57-.97-.34-1.25.03-.17-.08-.34-.16-.52-.24-.28.36-.88.61-1.29.99-.32-.11-.72-.05-.99,0-.53.08-1.06.16-1.59.24-.4.06-.93.14-1.71-.05,1.06,1.58.28,3.44.97,5.06.25.59.7,1,1.48,1.52-.21.5-.15.97.04,1.41.32.74.9,1.44,1.23,2.18.39.89-.07,2.05.33,2.93.2.44.66.85,1.45,1.06-.26.66-.05,1.41.29,2.15.47,1.03,1.21,2.03,1.76,3.2.34.73.56,1.49.45,2.12.53.25.8.53.94.82.35.74-.19,1.88,1.15,2.65-.57.22.46,1.49.29,1.97.39-.04.68.54,1.19.49-.04.47.05.92.2,1.21.73,1.46,2.73,2.49,2.17,3.77.43.57.7.85.55,1.32.02.3.46.11.73.39,0,.76.3,1.34.68,2.07.84,1.6,2.24,3,3.02,4.46.23.44.55,1.02.53,1.47.41.27.86.39,1.18.97-.42.18-.39.48-.31.62.24.44,1.06.98,1.66,1.84.89,1.14,1.37,2.46,1.7,3.04,1.06,1.88,2.34,3.89,3.18,5.34.53.91,1.07,1.83,1.6,2.74.51.86.94,1.58,1.7,2.44.83.56,1.83.39,2.27,1.55.57.13,1.05.12,1.52.11.6-.01,1.11-.17,1.58-.18.48-.01,1.04.13,1.56.41.67-.9,1.87-1.52,1.11-3.29-.77-2.22-.39-4.19-1.7-6.41-.08-.15-.16-.3-.24-.44-.72-1.34-.46-2.72-1.52-4.04.27-1.84.98-3.43,3.48-3.1.05.1.1.2.15.3.75,1.51,1.49.54,2.12.82,1.37.56,1.21,1.96,2.67,3.44.28-.17.05-.62.72-.49.58,2.14,1.6,4.42,3,7.14,1.33,3.03-.1,4.27,1.17,6.81-.43,1.96,1.07,4.64.57,6.11-.5,1.47-3.93.29-3.82,2.76-1.2.28-2.57-.45-3.62-.45-.47,0-.96.14-1.21.86-.62-.43-.95-.58-1.3-.58Z"/>
    <path class="cls-8" d="m193.97,139.04c-.55-1.08-1.26-1.85-2.06-2.16-.47-.92-.87-1.08-1.38-1.23-.36-.92-.75-1.69-1.15-1.84-.44-1.07-.8-2.45-1.33-3.53-.38-.77-.87-1.54-1.69-1.84-.31-1.08-.5-2.62-1.1-3.86-.3-.62-.63-1.07-1.19-1.53-.52-1.08.07-2.03-1.09-2.78.2-.32.17-.63-.05-1.09-.22-.46-.81-1.23-1.16-2-.02-.05-.05-.1-.07-.15-.29-.62-.15-1.09-.28-1.88-.42-.93-1.38-1.99-1.61-2.77-.49-1.08-.35-1.57-1.08-2.96-.51-.61-.65-.92-.78-1.23-.21-.47-.34-.78-.5-1.4-.49-1.4-1.4-2.94-2-4.34-.6-1.4-.82-2.5-.29-3.02.06-.16-.07-.48-.14-.63-.32-.78-1.3-1.03-1.81-1.96-.32-.78-.6-2.37-1.22-3.61-.44-1.09-1.61-1.48-1.31-2.63-.56-.12-.87-.57-.99-.88-.19-.47-.25-.95-.31-1.43-.02-.05-.04-.1-.06-.16-.18-.47-.74-.9-1.11-1.52-.86-1.86-.58-3.51-.54-5.14-.55-.76-.93-.4-1.18-.37-.66-1.4-1.53-3.75-2.88-4.91.38-.04.04-.98.85-.58-.06-.16-.24-.3-.36-.61-.29-.78.25-1.5-.14-2.6-.33-.94-1.44-1.8-1.7-2.91-.53-1.9-.06-2.12-.96-3.16-.35-.61-.8-1.54-1.12-2.49-1.18-3.46-1.91-8.3-1.1-9.74.46-.72,1.03-1.13,1.69-1.22,1.06-.14,2.26.19,3.55.36.24.8.75,1.56,1.62,1.29.19.64.6,1.09,1.35,1.32.03.11.06.21.1.32.19.64.5.77.99,1.04.11,2.15,1.3,3.83.77,5.55,1.97,1.59,2.63,6.16,3.8,8.84.27.8.93,1.23,1.02,1.88.37,1.12.1,2.62.6,4.06.38,1.11,1.03,2.2,1.87,2.78-.1.83.19,1.63.47,2.42.11.32.23.64.34.95.34.95.68,1.91.36,2.75.61.28.9.74,1.14,1.38.41,1.11.57,2.57,1.47,4.29.54.77,1.5,1.68,1.68,2.49.06.16-.42.19-.42.84.06.48.73,1.58.79,2.06.19,1.12.57,2.4,1.13,3.82.44,1.11,1,2.2,1.69,3.62.13.31.47-.02.65.13,1.63,3.47,2.82,6.63,4.2,9.62.07.16.13.31.2.47.47,1.1.67,2.37,1.01,3.16.59,1.1,1.37,1.88,2.04,3.92.37,1.1.65,1.73.89,2.52.28.63-.13.95.23,1.73.57,1.25,2.36,2.81,3,4.23.18.63-.1.94.65,1.88-.14,0-.28,0-.43,0,.32.47.65.94.87,1.41.8,1.72.26,2.8.6,4.35-.27.3-.34.15-.63-.01.23,1.55-.19,2.15-1.03,2.13-.84-.02-2.1-.65-3.34-1.44Zm-39.13-97.75c-1.17-1.15-3.24-3.48-3.94-6.01-.22-.79-.3-1.61-.1-2.47.09-.18.74-.45.92-.82.34-.89,0-2.16.75-2.62.23-.21.81.37,1.04.16.41-.07.43-.57.62-.93.23-.21.65-.27,1.06-.34,1.51-.25,3.5.28,4.38.98.47.76.3,1.79,1.48,1.95-.28,1.71,1.38,3.81,1.93,5.9.17.64.29,1.13.19,1.81-.33,1.38-2.54,1.53-2.1,3.63-.49.24-1.17.33-1.84.43-1.34.2-2.83-.09-4.4-1.67Z"/>
    <path class="cls-8" d="m214.54,139.12c-.39-.49-2.85-4.37-3.21-5.01-.04-.11-.09-.22-.13-.32-.51-1.29-.61-2.57-.89-3.54-.5-.49-1.04-1.61-1.42-2.58-.31-.81-.58-1.78-.39-2.1-.38-.16-.61-.48-.94-.8.04-.16.03-.49-.04-.65-.31-.81-1.19-1.45-1.39-2.25-.28-1.29-1.74-4.03-2.35-5.97-.13-.65-.21-1.46-.44-2.11-.18-.49-.57-.96-1.24-.94-.25-.97.74-2.32-.72-2.92,0-.33-.12-.65-.18-.81-.35-.97-.92-1.93-1.71-2.56.85-1.19-1.72-3.21-1.08-4.39-1.03-.61-.37-3.11-1.68-3.87.06-.17.18-.18.29-.18-.17-.16-.28-.48-.39-.8-.22-.65-.31-1.64.1-1.82-.5-.8-.95-1.76-1.21-2.58-.75-2.27-.94-4.75-1.83-7.18-1.51-4.38-1.46-8.39-2.68-12.14-.1-.33-.53-.96-.68-1.45-.09-.33-.06-.67.34-1.03-.39-.47-.7-1.11-.89-1.77-.51-1.8-.34-4-1.26-5.93.51-.05.59-.22.55-.39-.13-.49-.87-1.26-1.13-1.74-.4-1.48-.79-2.95-1.18-4.43-.39-.97-1.33-3.06-1.49-4.22-.04-.67.14-1.03.02-1.52-.5-1.47-2.02-2.65-2.39-4.12-.32-1.82-.02-2.87-.68-4.48-.45-1.3-1.56-2.52-2.05-3.98-.19-.82-.29-1.82-.44-2.48-.19-.82-.47-1.46-1.13-1.89.74-.43.86-1.12.64-2.11-.26-1.15-.99-2.58-.93-3.6-.01-1.35.6-2.45.5-3.62-.03-.84-.65-1.1-.41-1.98.21-1.04,1.63-1.06,1.26-2.88.49-.4,1.01-.64,1.57-.72,1.53-.2,3.21.44,4.43.12.48,1.81,1.26,2.91,2.49,3.44-.04.51.02.85.09,1.18.16.83.43,1.48.76,2.46-.41.05-.65.24-.89.44.37.47.47.97.57,1.46.36,1.83-.82,3.5-.13,5.46.24.48.82.59,1.09,1.24.24.48-.36,1.57-.18,2.4.72,3.32,2.66,7.19,3.43,11.69.03.11.05.22.08.33.39,1.66,1.56,3.24,1.96,4.39.52,1.65,0,2.2.87,3.65.21.32.62,1.47.7,1.8.77,3.15,1.51,6.64,1.96,9.81.05.67.56,1.64.53,2.49,0,.51-.03.85.02,1.01.09.33.26.49.6,1.3.04.17.09.33.13.5.35,1.32.4,3.34.94,4.81.57,1.64.68,6.33,1.27,8.31.15.49.83.79.98,1.28.02.06.03.11.05.16.24.82-.1,1.68.19,2.67.02.05.03.11.05.16.4,1.31,1.79,2.41,1.16,3.44.72.8,1.53,1.93,1.76,3.08.1.33-.31.52-.21.84.3,1.1.61,2.19.91,3.29.27.49.89.63,1.15,1.12.03.11.07.22.1.33.26.82-.25,1.01,0,2.16.21.66.97,1.62,1.08,1.95.26.82.19,1.98.68,3.13.54,1.31,1.3,1.95,1.57,3.1.16.82-.21,1-.05,1.49.44.98.76.97,1.04,2.12.45,1.64,2.5,4.24,3.06,5.88.22.66.19,1.15-.01,1.48.32.33.55.98.72,1.47.17.49.34.98.66,1.31.07.49-.34.49-.27.98.52.33.74.66.85.98.17.49.2,1.14.39,1.96.04.11.08.22.12.33.35.98.99,1.64,1.28,2.46.05.17.91,4.4.89,4.56-.12.97-1.1,1.43-2.26,1.4-1.07-.03-2.44-.54-3.32-1.52Z"/>
    <path class="cls-8" d="m235.73,140.06c-.67,1.82-3.13-2.23-4.16-4.06,0-.33.04-.5-.05-.83-.15-.5-.68-1.01-.97-1.34.09-.67-.05-1.5-.3-2.33-.24-.84-.63-1.84-.92-2.84-.24-.84-.33-1.5-.22-2.17-.64-.83-1.12-1.84-1.67-2.34-.02-1.5-.43-3.35-.98-5.35-.6-2.18-1.44-4.51-1.98-6.52-.36-1.34-.56-2.51-.61-3.52-.41.51-.41-.33-.72-.66-.05-1.01-.14-2.19.39-2.71-.17-.67-.61-.66-.87-.82-.11-.84-.12-1.35-.25-1.85-.42-1.68-1.17-2.83-1.49-5.02-.08-.33-.34.01-.42-.32-.17-.67-.34-1.34-.5-2.01-.25-1.01-.5-2.01-.56-3.7-.93-.98-1.5-2.31-1.82-3.65-.57-2.35-.61-5.06-.95-7.08-.23-1.01-1.1-2.15-.22-2.54-.36-.49-.59-.99-.7-1.49-.34-1.51.41-2.58.1-3.41-.29-1.35-1.2-.95-1.34-2.13,1.05-.92-.39-3.55-.43-4.92.07-.86.32-.87.18-1.55-.21-1.01-.82-1.48-.99-2.32-.17-.84.3-1.05.19-1.55-.08-1.02-.79-2-1.03-3.17-.07-.34-.04-.85.11-1.38-.13-.67-.93-.1-1.16-.6-.28-2.03-.25-3.91-.54-5.43-.26-1.35-.71-2.34-1.69-3.29-.26-1.35.02-3.42-.23-4.77-.15-.84-.51-1.33-1.28-1.09-.15-1.53,1.66-2.03.79-3.84-.28-.83-1.1-1.62-1.28-2.63-.09-.51-.04-1.02.11-1.72-.19-.32-.33-.31-.52-.64.05-.52.08-.35-.07-1.19-.03-.17-.41.04-.57-.12.43-.72-.31-1-.4-1.51-.23-1.35.23-2.76,0-4.11-.06-.34-.39-.65-.44-.99-.61-3.71.65-5.55,1.96-8.08.16.16.44.13.58.12.97-.09,1.66-1.19,2.69-.94,1.77.53,3.31,4.52,4.86,6.63.07.51-.18.7-.24,1.23.53.82.42,1,.3,2.04-.06.52.41-.03.6.29-.08,1.38-.1,3.1.13,4.64.26,1.7.76,3.21,1.83,3.99-.43.72-.43,1.58-.3,2.43.06.4.12.79.19,1.19.13.85.24,1.53-.05,2.24-.08.35.26-.02.45.31.08,1.37.2,2.91.45,4.44.34,2.04.86,4.41,1.27,6.78.07,1.2.09,2.05.27,3.07.33,1.87.98,3.37,2,5.54-.22.19-.32.36-.26.7.09.51.56,1,.53,1.51-.03.52-.35.88-.38,1.39.31,1.7,1.65,4.19,1.94,6.41.19,1.02.81,2.36,1.01,3.37.19,1.02-.27,2.41-.04,3.6.19.33.52.83.56,1,.07.34-.28,1.04-.11,1.89.39,1.35,1.42,2.33.76,3.21.3.33.49.66.59,1.17.1.51.09,1.02-.04,1.54.52.83.7,1.68,1.26,2.17.25.67.36,1.18.5,1.86.17.85.35,1.69.8,2.19.16,1.87.4,4.08.83,6.11.18.85.36,1.69.62,2.37-.18.18-.51.19-.55.53.07.34.3.84.37,1.18.11.51.12,1.02-.28,1.2.33.5.59.66.81,1.17.66,4.41,1.48,7.95,2.48,12.18-.62,0-.17,1.02-.36,1.53.69.33.88.67,1.22.83-.08.51-.08,2.2.21,3.38.16.67.43,1.35.87,1.52.31,1.69.6,4.05,1.15,6.24.21.84.38,1.52.65,2.19.08.34,0,.34-.2.33.18.34.41.84.53,1.35.34,1.35.54,3.2.94,4.38-.65.33-1.12,1.65-1.94,1.64-.28,0-.69-.18-1.06-.52Z"/>
    <path class="cls-8" d="m276.74,139.44c-.35.18-.42.7-.76.7-.3-1.21-.94-1.91-1.73-1.91-.26,0-.53,0-.79.17-.6-1.56-1.76-3.12-2.6-3.64-.26-1.39-.57-1.91-.94-1.91-.74,0-1.48,3.47-2.22,4.16-.34.17-.46-.17-.74-.35-.15.34-.31.52-.25,1.21-.7.17-1.02,1.38-1.8,1.55-.03-.34-.12-.35-.16-.69-.11.69-.65.51-.65,1.38-1.13.86-1.14,0-2.59.33-.24.17-.94.16-.88-.7-.22.34-.79,0-.73.51-.18,0-.09-.69-.29-.86-.28.52-.52.68-.88.68-.79,0-1.88-1.39-2.8-2.09-.5-.35-1.08,0-1.43-.53-.65-.69-1.08-3.27-1.8-2.07-.27-1.03-.11-1.2-.2-1.71-.27-.52-.45-1.03-.79-.86-.59-2.4-2.9-5.83-3.69-8.57-.62-2.4-1.06-3.76-1.62-6.33-.39-2.23-1.43-4.1-1.71-5.64-.04-.23-.08-.46-.12-.68-.21-1.2.03-2.23-.25-3.26-.25-.85-.75-.67-.79-1.53,0-1.2.09-3.26-.45-5.83-.22-.68-.77-1.36-.61-1.7.11-.23.22-.46.33-.69-.39-1.71-1.5-2.37-1.64-3.91-.23-1.37.73-2.43.01-4.13-.28-.33-.34.01-.45.01.08-.46.16-.92.24-1.38-.28-.34-.65-.5-.82-.84.5-1.91-.47-4.46.13-5.86-.42-1.19-.71-2.39-.87-3.42-.52-3.43.02-6.38-.8-10.49.37-.01.42-.53.64-.72-.29-.33-.49-.84-.53-1.19-.12-.86.01-1.73-.23-2.58-.54-3.08-1.75-6.48-2.18-9.74-.16-1.2-.19-2.41-.06-3.45.77-.04,1.09-1.61.36-2.26,1.08-1.78,2.16-3.74,4.18-3.31,2.53.41,3.53,6.25,4.9,9.49-.29.88-.2,1.74-.1,2.6.22,2.07.82,4.12.77,5.86.08.69.63,1.19.7,1.88.37,3.45-.37,7.45.5,10.71-.34.18-.41.53-.35,1.05.06.52.38,1.2-.03,1.73.11.86.99,1.35.23,1.89-.05.52.11.86.69.84-.27.7-.29,1.39-.21,2.08.13,1.03.51,2.23.78,3.43.13,1.03-.42,2.08-.26,3.29.16,2.07,1.41,4.8,1.5,6.35-.07.35-.48.53-.44.87.02.17-.06.35-.02.69.12.86.48,1.89.88,3.26.25,1.89-.33,3.8.69,4.3.01.86,0,1.55.12,2.41.41,2.93,1.55,5.84,2.06,8.08-.13.52-.03,1.21.07,1.89.15,1.03.47,1.89,1.11,2.23.07.52.02.86-.22,1.21.99,3.44,2.66,8.61,4.81,7.92.19,0,.29-.69.57-.69.49.17,1.36,1.21,1.14-.69,1.07.34,2.62-1.04,2.33-3.12,1.34,1.21,2.85-4.68,2.62-7.98-.08-1.04-.34-1.73-.77-2.08.19-2.6.96-4.69.99-7.12-.01-.17-.02-.35-.04-.52-.1-1.39-.92-2.59-.92-3.98.08-.35.59-.7.58-.87-.02-.29-.04-.58-.06-.87-.05-.69-.12-1.73-.26-2.25-.16-.69-.21-1.38-.25-2.08-.07-1.04-.05-2.26-.12-3.29-.1-1.39-.3-2.77-.95-3.98-.17-2.43-.34-4.85-.5-7.28-.25-3.64-.5-7.45-.48-10.75-.03-.52-.35.18-.6.01.5-1.57-.02-3.99,0-5.73.1-.35.41-1.22.38-1.74-.03-.52-.3-.86-.91-.85.07-.87.21-2.61.11-4.17-.06-1.04-.24-1.9-.78-2.41.34-.53.4-1.74.18-3.3,1.2-1.24.26-4.17,1.57-6.11.36-.53,2.22-2.13,2.73-2.31.25-.18.63-.36,1.15-.37.52,0,1.05.33,1.21,1.02.39,0,.37-.35.65,0,1.11,1.9,2.06,3.79,1.63,6.06,0,.06,0,.11,0,.17.03.87.54,1.04.7,2.08,0,.23.02.46.02.69.04,1.22-.29,2.61-.25,3.83.01.35.4.86.42,1.38.03.87-.31,1.91-.28,2.78.02.52.28,1.04.9,1.21-.36.35-.45,1.05-.94,1.23.06,1.74-.21,4.35-.39,5.91.13.35.49.34.62.51-.18,1.74-.23,3.3-.18,4.69.07,1.74.25,3.3.31,4.86.05,1.22-.02,2.43-.08,3.82.48.52.62,1.21.64,1.73.03.69-.06,1.39-.26,2.09-.11.18-.09.52-.08.7.04.87.61,1.38.77,2.6.13.52-.71,1.57.07,1.91-.21.35-.19.87-.17,1.22.06,1.39.65,2.77,1.1,3.29-.17,1.39-.11,2.78-.07,3.99.08,2.26.27,4.51.43,6.08.02.69-.67,1.39.19,2.43-.29.52-.37.87-.36,1.22.03.69.36,1.56.39,2.26-.08.52-.45,1.22-.43,1.74.15,1.22.81,2.95.86,4.34,0,.23.02.46.03.69.01.35.13.87.62,1.04-.07.69-.15,1.22-.13,1.74.11,2.95,2.22,4.33,3.44,5.37.83-.35,1.38-1.05,2.04-.36,1.85-.36,2.89-2.1,4.16-4.19q-.09-.52.02-1.04c.2-.52.4-.7.68-.52,0-.17-.09-.52-.08-.69.02-1.22.71-1.57.44-2.61.1-.17.39-.18.5-.35-.09-.35-.18-.69-.17-1.21.02-.87.24-1.91.74-2.09-.04-2.26.31-4.34.38-6.94.06-2.26.13-5.03.06-6.6.01-.52-.62-.87-.61-1.39,0-.06,0-.12,0-.17.03-1.56.92-2.78.85-4.17-.18-1.56-.69-3.47-.54-5.38.14-1.39.52-3.65.45-5.73.02-.87-.41-2.43-.28-3.3.12-.17.58-.35.82-.69,0-.06,0-.12,0-.17,0-.35-.32-1.39-.31-2.08-.03-4.17-.06-9.38.11-12.67.3-3.13-.87-6.95-.72-9.55,0-.52.27-1.22.27-1.74,0-.52-.11-1.04-.87-1.39,0-.7.64-.52.77-1.04,0-.06,0-.12,0-.17,0-.69-.5-.7-.11-1.56,1.3-2.42,1.63-6.42,4.09-6.22.65,0,1.25,1.92,2.06.55.37.7,1.13,1.05,1.36,1.93.52,0,.41-.69.79-.51.97,1.92,1,4.35.9,6.95-.05,1.33-.1,2.66-.16,3.99-.06,1.39-.11,2.77-.05,4.16-.01.35.34.7.45,1.05,0,.06,0,.12,0,.17-.04.87-.45,1.9-.5,2.94.09.7.67,1.4.63,2.09.06,1.21-.99,3.11-.85,5.37.12,2.43.26,4.51.14,6.76-.09,1.73-.29,3.46-.73,5.37-.04.69.42.7.5,1.22-.42,1.56-.61,3.12-.71,4.85-.17,3.29.07,6.76-.14,10.4-.08,1.39-.28,2.95-.58,4.5.36,1.04.44,3.12.29,5.37-.17,2.77-.58,5.89-.89,7.79-.19,1.39-.74,2.43-.9,3.64-.02.35.14.87.01,1.39-.12.35-.51.52-.62.87,0,.06,0,.12-.01.17-.03.52.13,1.04,0,1.56-.18,1.39-1.08,2.61-1.06,3.82-.19.17-.18,0-.47.18-.26,1.39-1.08,3.13-1.66,4.18-.56.53-1.26.19-1.8.54-.55.53-1.06,2.79-1.5,2.79-.17,0-.33-.69-.42-.86-.09,0-.02.69-.19.7-.09.17-.43-.34-.52-.34-.27.17-.54,1.05-.98,1.22-.17,0-.35.18-.44.18-.69,0-1.3-.51-1.82-.51-.35,0-.61.35-.69,1.22-.78-.34-2.75.36-3.5-1.72Z"/>
    <path class="cls-8" d="m309.28,141.54c.27-.52-.08-.51-.29-.84-.18,0-.21.18-.36.52-.27-.5-1.09-.31-1.04-1.68-.48.18-1.63.72-1.35-.48-.78-.15-.75-1.52-.78-2.55-.38-.51-.83-.5-1.31-1-.74-1.19-.31-3.77-.51-5.83.03-1.72-.53-3.26-.6-5.15.04-2.75.57-6.55.87-10.16.39-3.45.36-8.1,1.13-12.41.36-2.41,1.14-4.82,2.12-7.74.76-1.89.75-3.96,1.21-5.16.48-1.37,1.87-2.56,1.92-4.11.27-.34.73-.33,1-.67.86-2.57,2.34-5.29,3.9-6.46.37.18.75.36,1.12.55.6-2.05.79-.67,1.19-1,.87-.32,1.61-.47,2.46-.62.52-.33,1.26-.48,1.62-.46.29.52.5.7,1.45.73.71.02,1.81-.11,3.63-.22.29-.33.73-.83.62-.15.48.02,1.86.41,1.75,1.09.7.37,1.4.74,2.09,1.11.03.51-.12.68-.27.84.12,0,.27-.16.27-.16.36.01.65.37.83.72.12-.68.72-2.02.93-3.21.12-.68.12-1.36-.28-1.89.33-.5.45-1.18.77-1.67-.75-2.08.61-5.1-.82-6.19.14-.85.44-1.18.54-1.86-.04-.51-.64-.71-.71-1.06.15-.16.2-.5.23-.67.16-1.02-.94-1.24-1.29-2.29-.1-.18,0-.86-.1-1.03-.63-.89-1.36-1.1-1.99-1.13-.34-.02-.67-.03-1.01-.05-.38-.02-.75-.03-.62-1.06-.57.49-2.02.94-1.87-.26-.15.17-.27.16-.4.15-.63-.03-1.03-.91-1.62-.24-.19-.53-.55-.71-.93-.73-1.01-.04-2.41,1.11-2.63,1.96-3.87,2.1-2.39,9.05-5.15,12.93-.92.66-1.93,1.15-2.89,1.13-1.08-.03-2.21-.74-2.91-2.32-.53-.88-.04-2.25-.45-3.12-.11-.18-.7-.36-.55-.71,0-.11.02-.23.03-.34.07-.86.91-2.05,1.12-3.08.04-.52.21-1.03.24-1.38.12-1.38-.03-2.59-.09-3.46,1.35-1.17,1.99-4.27,3.43-6.12.84-.84,1.61-.81,2.31-1.48,1.13-1.17,2.1-3.2,3.38-4.36,2.59-2.48,5.45-.97,8.45-2.03-.16,1.37.72.55,1.36.76,1.02.22,1.05,1.09,1.57,1.11.04,0,.09,0,.13,0,.52.03,1.08-.28,1.45-.09,1.15.24,2.42,2.54,3.79,2.96.23.19.7-.3.96-.29,1.64.44,1.56,3.52,3.52,3.47-.34.49-.52.82-.55.99-.13.85.89.91,1.42,1.62.1.18.06,1.2.2,1.89.17.52.85,1.07,1.04,1.43.15,1.37.04,3.41.3,4.79.51,2.07.41,3.26.18,5.12.09.18.03.51-.04.85-.05.28-.11.56-.16.84-.13.67-.23,1.18.23,1.37-.16.16-.22.5-.25.67-.17.84.12,1.87.04,2.89-.19,1.52-.98,3.01-1.22,4.18-.1.51-.09,1.01.08,1.36-.19.33-.43.32-.7.48-.1.5-.13,1.18-.23,1.69-.67,3.19-2.13,6.69-2.52,9.55-.18,1.35-.56,3.03-.9,4.54-.3,1.34-.57,2.52-.88,3.35-.49,1.17-1.17,2.67-1.44,3.84-.23,1.01-.21,1.85.21,2.36-1.1,4.19-2.25,10.55-3.23,14.73-.17.67-.6.34-.83.84.16.17.07.5-.01.84-.17.67-.69,1.51-1.02,2.01-.16,1-.05,2.5-.37,3.67-.13.5-.37,1-.65,1.34.61.99-.57,2.84-.93,4.17-.14.5-.18,1-.08,1.33-.89,1.51-1.54,2.86-2.51,4.38-.42.18-.97.2-1.44.21-1.67.05-3.28-.73-2.84-3.76-3.08,3.6-6.72,3.7-9.99,5.99-.25-1.01-.97-.99-1.47-.64Zm6.83-13.2c.03.34.32.33.22.85,1.2-1.2,2.32-2.91,3.6-4.78-.59,0,.14-.68.25-1.19,1.07-1.36,2.05-1.7,2.62-3.39.45-1.19.84-2.54,1.09-3.72.29-1.35.46-2.71.53-3.55,0-1.02.13-2.2.41-3.56.17-.85.48-1.86.79-2.88-.36.16-.37-.85-.17-1.87.13-.68.37-1.36.69-1.86-.38-.86-.33-1.71-.5-2.56.04-.23.08-.45.13-.68.25-1.36.28-2.72.16-3.92.06-.34.23-.68.41-1.01-.19-.18-.25-.52-.27-1.03.23,0,.29-.33.35-.67.12-.68.13-1.36.07-1.7-.02.17-2.45-2.46-2.86-2.13-.43.5-.8.66-1.14.65-.57-.01-1.06-.54-1.41-.55-.49,1.7-2.72.62-3.89,1.63.09.17.04.52.02.69-.05.34-.32.68-.62,1.19.18.35.27.52.24.69-.1.68-1.15,1.01-1.18,2.04-.2-.17-.08-1.03-.62-.35-.14.17-.23.86-.3,1.37-.89.84-1.01,2.56-1.62,4.62.33,0,.41.18.39.35-.13.17-.16.34-.18.51-.09.69-.08,1.37-.54,1.54.06.34-.01.86-.06,1.2-.09.63-.18,1.26-.26,1.89-.1.69-.17,1.2-.06,1.89.03.51-.42,0-.41.68.16.34.22.69.17,1.03-.12.86-.66,1.71-.91,2.74-.23.86-.45,1.71-.58,2.57-.37,2.57-.35,5.14-.67,7.2.32.51.42,1.71.26,2.74-.08.51-.29,1.2-.53,1.54,1.24.67,1.6,2.55,2.93,3.04.05-.34,3.38-1.23,3.48-1.23Z"/>
    <path class="cls-8" d="m351.43,138.29c-.14-.15-.78-.29-1.07.66-1.42-.9-2.42-2.14-4.31-2.41-.15-2.23-1.9-3.16-1.72-6.56.13-2.11.11-3.57.55-5.53.16-.49-.2-.33-.2-.65.05-.16.11-.33.16-.49.32-.98.85-1.63,1.01-2.78.21-.65-.21-.98-.11-1.64.16-.49,1-1.47,1.21-2.12.03-.11.07-.22.1-.33.31-.98.19-1.64.51-2.29.26-.49.38-.16.48-.49.75-.97.28-2.3,1.13-3.27.25-1.15.54-2.46.93-3.77.99-3.28,2.29-6.88,2.58-10.36.37-.48.84-1.3,1.12-2.28.37-1.31.43-2.81.14-3.49.72-.46,1.23-1.44,1.5-2.43.36-1.31.4-2.81.06-3.84.6.03,1.01-.61,1.19-1.27.13-.49.18-1.16-.14-1.35.83-1.29,1.38-2.93,1.8-4.58.25-.99.5-1.98.75-2.97.25-.99.49-1.98.86-2.96.41-1.14.7-1.29.9-2.62.28-1.16,1.21-3.44,1.64-5.25.19-.82.35-1.49.17-1.84-.05-.34-.31-.36-.56-.38-.13-.01-.26-.02-.38-.03-.38-.03-.73-.23-.71-.9-1.75.87-2.88-1.07-4.16-1.17-.51-.04-1.09.25-1.72,1.39.42-2-1.81-2.5-1.87-4.2-.09-.86.56-2.16,0-3.39.09,0,.17.01.26.02,1.17.09.77-1.98,1.65-3.09.29-.15.78.06,1.37-.23,1.43-.56,3.56-2.58,4.78-2.64.09,0,.18.02.26.02.66.06,1.25.45,1.91.51.53.05,1.09-.07,1.56-1.04.23.19.36.2.49.22.4.04.6-.28.73-.94.14-.66.08-1.68.18-2.18.33-.98.7-2.13.93-3.28.2-.99.26-2-.09-3.05.5-.46.73-.94.86-1.6.16-.83.18-1.67.33-2.5.12-.66.25-1.33.75-1.78-.65-.24-.72-.59-.66-.92.18-1,1.54-2.37,1.83-3.18.75-2.63,4.41-2.71,6.44-3.8.17,1.37.21,3.4,1.81,3.09,0,1.51.56,3.6.26,5.08-.17.82-.57,1.44-1.08,1.89.31.54.31,1.21.17,1.87-.13.6-.25,1.2-.38,1.8-.21.98-.38,1.8.01,2.52-.14.65-.84,2.59-1.28,4.56-.59,2.62-.77,5.11,1.23,4.66-.04.16-.17.15-.25.48,1.97,1.87,8.47,1.44,8.1,4.89-.17,1.14.66,2.06.48,2.71-.03.11-.06.21-.09.32-.18.64-.75,2.23-.84,2.56-1.5,2.49-3.69,1.76-6.28,2.01-.56.11-1.47,1.02-2.36.93-.09,0-.17-.02-.26-.02-.9-.09-1.84-1.01-2.78-.43-.77.43-1.36,1.71-1.66,2.85-.26.98-.26,1.98-.14,2.49-.43.63-.77.93-.78,1.93-.13-.01-.25-.02-.38-.03-.5-.04-.72.27-.85.76-.26.98-.24,2.31-.59,3.12-.09.32-.63.45-.85.76-.03.11-.06.22-.09.33-.27.98-.06,2.49-1.18,2.41.03.34-.06.66-.15.99-.23.81-.66,1.45-.94,2.43-.32,1.14.15,2.5,0,2.99-.14.49-.58.29-.8.61-.05.16-.22.32-.31.64-.19.65-.19,1.48-.43,2.29-.19.65-.46,1.13-.92,1.44-.85,3.26-1.14,6.54-2.4,10.1-.41,1.3-1.06,2.58-1.43,3.72-.25,1.14,0,2.13-.38,3.26-.32.97-1.27,1.76-1.6,3.06-.27.81-.43,1.95-.77,2.92-.33.97-.89,1.93-1.66,2.57-.67,3.56-3.19,10.03-1.45,12.1.5.64,1.39.8,2.45.79,1.81,0,4.06-.8,5.67-2.06.63-2.05,1.88-3.79,2.58-5.53.25-.63.51-1.26.47-1.74,1.32-.77,2.66-3.29,4.51-4.2.52-.15.73.18,1.14.03.11,0,.71-.62.94-.61,1.15.04,2.41,1.5,1.49,3.36.62,2.06-.83,4.85-1.04,7.34-1.04.3-1.92,1.54-2.3,2.62-.1.47.2.78-.12,1.24-.21.46-1.2.93-1.77,1.7-.25.31-.32.93-.5,1.08-.86,1.39-2.3,2.18-3.3,3.43-.57.78.04.62-.25,1.24-1.25.64-2.6,2.21-3.97,2.7-1.09.34-1.91-.11-3.1,2.09-.14-.15-.27-.3-.58-.29-.41.01-.96.34-1.48.82-1.43.05-1.76-1.5-3.02-1.62Z"/>
    <path class="cls-8" d="m386.4,138.25c-.31,0-.62,0-.92.01-.69.01-1.26.02-1.35-.41-.29-.29.39-.88-.27-.72.28-.29.48-.44.56-.59q.08-.15-.03-.15c-.35,0-1.17.45-1.56.75.09-1.17-2.7-.4-1.38-2.18-.54.15-1.2.75-1.77.76.16-.3.05-.29-.06-.29.13-.45.39-.3.55-.6-.1-.44-.74-.29-.92-.59-.63-1.33,1.12-4.48-.55-5.24.38-.3.61-.75.95-1.21.23-.45-.11-.45-.34-.46.42-.6.87-1.51.3-1.52.19-.15.45-.45.53-.6.22-.45-.2-.76-.81-.47.07-.15.15-.3.22-.45.52-1.06,1.23-1.82,2.23-3.18.22-.46-.69-.01-.78-.32.65-1.37,1.34-2.58,1.91-3.8.5-1.07.87-2.14.75-2.92.16,0,.31.01.47.02,0-.78.23-1.54.57-2.31.16-.36.32-.71.48-1.07.34-.76.68-1.53.66-2.31.07-.15.19-.15.43-.14.37-1.39,1.14-2.6,1.74-3.99.26-.61.41-1.23.55-1.85.31-.14.69-.75.95-1.36.39-.92.6-2.01.29-2.19,0-.32-.05-.48.01-.63.38-.93,1.55-1.32,2.11-2.39.25-.3.38-.61.44-.76.38-.92.32-1.72.69-2.65.18-.46.49-.92,1.05-1.35.12-.31-.25-.34-.25-.66.49-.6.74-1.21.92-1.68.1-.26.2-.51.3-.77.3-.77.6-1.23,1.35-1.8.05-.47.29-1.09.53-1.71.47-1.24,1.12-2.61,1.64-4.01.69-1.86,2.02-4.77,2.03-5.57.06-.16.11-.31-.22-.51.37-.28.53-.75,1.1-.85-.2-.18-.28-.35-.22-.51.16-.47.97-.86,1.32-1.46.04-.1.07-.21.11-.31.16-.46.12-1.12.39-1.89.27-.78,1.4-2.9,1.87-3.49.24-.29.71-.07.94-.37,1.29-.97,3.08-4.29,4.31-5.09.37-.27.95-.36,1.26-.47.18-.14,3.4-2.75,3.72-2.86,1.12,0,1.48-.27,2.37-1.26.48.23.38.54.33.69,1.03-.17,2.86-1.01,3.41-.12.27.04.29-.44.47-.57.3.37.75.28.92.62.27.04.02-.48.34-.59.67.11,1.09-.31,1.64-.7.4.06-.3.91.33.69.27.04.25-.76.57-.87.32-.11.45-.09.72-.04.81.13.77,1.08,1.34,1.49.22.19.35.22.48.24.8.13,1.55-.38,2.36-.25,1.38.55.43,4.03,2.82,3.31-.35,1.36.81,1.71.77,2.96.48.24.78-.19,1.26.05.69,1.21.02,2.98,1.78,3.57-.09.61-.63,1.61.04,1.72-.5.54-.33,1.19.02,1.4-.25.27-.37.56-.42.71-.47,1.17.1,1.87-.65,3,.07.17.22.5.62.56-.25.27-.31.42-.43.71-.42,1.02.28,2.04-.64,2.52.07.16.08.47.29.66-.39.25-.58.69-.76,1.12-.37.87-.49,1.77-.67,2.51-.2.02-.4.05-.59.07.61.54-.37,1.79.03,2.45-.13.29-.39.56-.52.85-.33.72-.46,1.31-.79,2.03-.26.57-.66,1.13-1,1.55,0,.3.26.33.13.62-1,1.55-.78,3.69-2,5.05-.48.7-1.69,1.77-2.26,2.91-.21.43-.3.87-.25,1.32-1.53,2.24-2.86,5.84-5.18,7.42.03.45.29.47-.14,1.02-.83-.21-1.89,1.78-2.33.86-.08.14-.43.56-.84.83-.18-.16-.56-.19-.82-.21-.51-.04-1.1.07-1.53.63-.76-.05-1.3.2-2.06.9-.58.11.02-1.04.3-1.32-1.54.94-3.44.81-4.84,1.02.5-.72-.8-.2-.06-.9-.53.27-1.5.66-1.13-.07-.63-.04-.9.24-1.52.2.05-.1.1-.19.15-.29.22-.44.1-.45-.15-.46-.38-.02-1.42.51-1.84.34-.99-.06-1.01-1.59-2.26-.6-.1-.31-.15-.47-.4-.48-.49-.03-1.4.52-2.21.63-1.06.09-1.56-.71-2.17-.74-.37-.02-.68.11-1.14.55-.44.13-.1-.31-.35-.33-.84.72-1.52.84-1.81.67.05.16-.02.31-.09.46-.21.45-1.05,1.18-1.68,1.45-1.31,4.09-2.6,6.49-4,10.24-.12,0-.24,0-.35,0,.15,1.37.79,1.99-.25,4.22.63.16.67.76.32,1.65.12,0,.23,0,.35,0,.94.02.11,1.34,1.06.91.04.15,0,.44-.24.88.47,0,.79-.14,1.18.02-.24.44-.12.44-.28.73.43-.14.87-.28,1.34-.28,1.19.02,2.05.61,2.89.62.48,0,.89-.28,1.18-1,0,.44.15.59.51.59.84.01,2.59-1.12,3.29-2.12,1.63-2,3.23-2.39,4.93-4.96.53-.71,2.55-2.98,3.53-3.37-.09-.3.02-.73.26-1.17,1.55-.96,3.95-2.74,4.92-1.65.38.02.19-.58.06-.58.76.04,1.35,1.1,1.33,1.83.3.16.49-.41.71-.1-.08.14-.16.28-.24.42-.48.85.11.73.21,1.46.06.58-.22,1.29-.55,1.85-.57.98-1.32,1.81-2.03,2.79-.29.71-.54,1.55-.88,2.11-.93,1.11-2.69,1.48-2.91,2.9-1.85.95-3.42,2.9-5.38,4.85-.04,0-.08,0-.12,0-1.11-.01-1.73,1.39-3.01,1.67-.7,1.13-2.16,1.12-2.56,1.97-.34-.42-.97-.56-1.44.57-.69.14-1.01.85-1.66,1.14-.77.29-1.19,0-1.67.01-.44.15-1,.86-1.68,1.01-.32.14-.56.15-.79.15-.59,0-1.09-.13-1.79-.12-.58,0-1.14.16-2.03.89.75-1.44.02-1.57-.91-1.56Zm28.92-40.97c.12.32.49.65.88.39-.26-.02.08-.45.34-.43.13.01.05.46.18.47.52-.26.34-.43.75-1.3.39.04.78-.23.91-.22,2.72-4,4.99-8.96,6.9-13.06.26-.59-.22-1.42.03-2.32.31-.74,1.08-1.57,1.26-2.01,0-.31-.15-.64-.16-.95.15-1.69,1.13-3.43,1.34-4.65-.1-.8-1.04-1.24-.24-2.23-.53-.08-.49-.54-.2-1.28-.74-.26-1.21-.49-1.19-1.27-1.74.54-2.86-1.68-4.59-1.93-.53-.08-1.11,0-1.62.25-.51.25-.84,1.15-1.9,1.01-.15-.34-.36-.53-.12-.81-.58.08-.85.04-1.11,0,.13.02.21.19.15.34-.17.46-.97,1.14-1.83.87-.6.88-1.17.96-1.38,1.89-.26-.03-.51.25-.82.37.08.17-.04.47-.09.63-.34.91-1.55,1.24-1.85,1.68-.06.15-.24.29-.3.44-.23.61.05.96-.43,1.86-.29.76-1.09,1.46-1.56,2.68-.18.46.78.09.1,1.12-.33-.2-.77-.09-.76.23.15.65-.09,1.26-.39,2.02-.6,1.52-1.72,2.99-2.33,4.51-.25.61-.37,1.23-.43,1.69-.32.13-.38.28-.5.58-.19.45-.25,1.24-.44,1.69-.63,1.83-2.35,3.72-3.19,5.38.63.05.05.79-.34,1.38.69-.1,1.7-.65,2.45-.58.5.04.87.38.91,1.16.25.02.45-.43.83-.4,1.32.26,2.68,1,4.2,1.12.76.06,1.46-.03,2.23-.27.05.46.49.66.99.7.89.08,2.31-.41,3.29-.78Z"/>
    <path class="cls-8" d="m452.76,139.51c-.29-.01-.54.1-.83.09-1.03-.04-1.04-.78-1.92-1.19.66-.84.26-1.11,1.35-1.94-.17-.76.19-1.63.92-2.6.91-1.22,2.34-2.54,2.73-3.28,1.4-.68,2.08-1.4,2.6-2.14.23-.33.47-.65.7-.98.35-.49.61-.86,1.16-1.21-.03-.39.26-1.02.77-1.76.6-.86,1.56-1.83,2.04-2.31.25-.37-.41-.3-.38-.56.45-.22.85-.58,1.1-.95.5-.74.59-1.79,1.24-2.79.49-.75,1.42-1.72,1.9-2.46.4-.62.58-1.14-.14-1.22.6-.47.92-.97,1.23-1.47.24-.38.47-.75.48-1.02-.35-.17-.63-.21-1-.11.6-.47,1.33-.92,1.57-1.3.16-.25.03-.54-.69-.62.57-1.42,2.26-3.26.07-3.67.53-.89-.75-.78-.66-1.46-.28-.04-.65.33-.85.17.16-.53-.19-.72-.75-.79-.84-.11-2.26.27-3.02.03-.48-.2-1.22-.99-2.05-1.1-.56-.07-1.05,0-1.7.63,0-1.55-2.04-1.1-3.69-1.3-.27-.03-.69-.08-1.02-.27-.01.28-.09.42-.09.42-.22.4-.63.35-1.21.85-.05,1.13-.52,2.21-1.22,3.4-.54.93-1.22,1.84-1.77,2.76-.55.93-.97,1.86-1.03,2.69-.63.08-.86,1.17-1.57,1.38-.32.53.09.56.2.85-.92,1.03-1.83,1.78-1.86,2.74-.36.11-.66.36-.82.62-.25.39-.23.81-.12,1.09-1.05.74-1.77,1.65-2.37,2.56-.51.78-.89,1.57-1.41,2.35-.43.65-1,1.29-1.71,1.92.01.4-.03.67-.29,1.06-.44.65-1.07,1.15-1.51,1.8-.27.39-.4.78-.12,1.19-.77.5-1.26,1.01-1.62,1.52-.27.39-.41.78-.68,1.16-.27.39-.68.77-1.23,1.14.09.27-.05.66-.24.91-.56.77-2.37,1.37-3.44,2.66-1.24.75-2.97,1.25-4.43,1.22-1.34-.02-2.15-.56-1.93-1.62-.04,0-.09,0-.13,0-1.19-.02-.31-1.07-.83-1.48.32-.26.59-.66.77-.92.64-.93.57-1.6,1.51-2.79.67-.79,2.53-1.95,2.89-2.48.31-.67-.08-1.09.62-2.16.17-.27.57-.66.96-1.05,1.31-1.17,1.67-.88,1.56-1.99.09-.13-.05-.14.04-.27.34-.53,1.7-1.15.37-1.22.98-1.33,1.92-2.39,2.67-3.59.42-.67.7-1.35.84-2.04.41-.67.24.3.75-.09-.1-.29.01-.7.26-1.11.82-1.35,3.01-3.15,3.46-4.38.07-.84.43-1.95.98-2.9.31-.54.75-1.07,1.25-1.45.25-.69-.71-.5-.33-1.18.57-.52,1.24-1.45,1.84-2.54.6-1.09,1.06-2.2.74-2.67.3-.55,1.29-1.6,1.72-2.42.36-.68.44-1.11.05-1.45.35-.4,0-.29.22-.7.2-.02.41-.05.61-.07,0-.29.29-.84.5-1.25.78-1.51,2.3-3.66,3.38-5.87.68-1.38,1.07-2.8,1.06-3.99.06-.44.12-.87.32-1.29.33-.69.92-1.35,1.72-1.82,0-.3-.08-.46-.35-.5,2.37-2.31,3.13-5.32,4.75-7.74-.03-.61.17-1.77.58-2.75.35-.84.78-1.52,1.22-1.88.37-.54-.24-.5.13-1.03.41.08.5-.51.93-.13,1.22-3.39,1.9-5.53,2.8-7.92.58-1.55,1.34-3.21,2.37-5.28.1-.28-.5-.26-.63-.29,1.03-2.06,1.98-4.45,3.55-6.06-.04-.32-.13-.49-.09-.63.28-.85,1.65-.98,1.87-2.15,1.36-1.05,3.81-1.81,5.48-1.99,2.13.24,4.18.77,6.22,1.31,1.59.42,3.18.84,4.77,1.27,1.5.41,3.13.85,4.81,1.17-.3.95-.06,1.61.49,2.64.4-.33.59.01,1.27.2-.09.27.28.52.01.88,2.64,1.02,2.88,2.99,4.75,4.51-.22,1.1.14,1.78.78,2.52-.05.13-.09.26-.14.39-.32.92-.06,1.86.44,2.56-.37.19-.42.32-.46.45-.24.66.91.81,1.22,1.61.36,1.52-1.92,5.08-1.09,6.42-.02.04-.03.09-.05.13-.21.52-.14,1.1-.34,1.62-.16.39-.45.74-.98.9.17.32.15.74.71.88-.77.38-.87,1.35-1.28,1.96-.11.26.17.32.45.39-.64.42-1,.9-1.27,1.54-.28.64-.36,1.18-.17,1.79-.28-.06-.53.16-.73.26.03.29.19.6.16,1.02-.39.19-.81.1-1.13.46-.23.51.47.66.38,1.2-.62,0-1.37.97-1.79,1.86-.24.51-.28.92-.05,1.1-1,1.47-2.21,3.31-3.03,4.96-.32.63-.63,1.26-.81,1.92-.41.2-.68.43-.75.55-.32.63-.02,1.24-.49,1.84-.01-.28-.23-.45-.45-.63-1.17.76-2.19,1.82-3.37,2.58.15.3.16.58.09.7-.34.63-1.61.7-2.24,1.28-.07.13.28.05.15.3-.49.61-1.41.6-1.9,1.48-.43-.07-.64.04-.99.12-.28.78-.56,1.56.22,1.81-.71,1.8.71,2.55.64,4.03-.43.21-.58.46-.73.7-.29.5-.15.79.71.64-.02.04-.05.08-.07.12-.67,1.12,1.21,1.9-.76,2.57,1,1.46-2.29,3.95-.72,4.93-1.14,1.3-1.89,3.18-2.92,4.49-.01.26.2.41.41.56-1.18,1.29-2.22,2.61-3.3,4.16-1,1.44-2.03,3.13-3.06,4.55-1.29,1.79-2.75,3.55-4.42,4.93-.03.25.03.37-.15.61-.27.35-.84.69-1.31.91-.18.24.27.26.45.03-.27.97-.67,1.69-1.03,2.15-.73.94-1.88,1.61-3.86,2.73-.39.1.13-.36-.41-.26-.43.35-.13.36-.32.59-1.22.55-2.75.73-3.93.69-.89-.04-1.68-.19-1.74-.68Zm6.55-47.32c.62.23,1.23.47,1.78.55.55.08,1.31.05,2.07-.27.14.02,0,.29.07.44,2,.44,3.53.38,5.61.71-.14.26-.07.42-.14.55,1.11-.11,1.88.15,3.07.19.48-.63,1.32-.78,1.95-.82.14-.26.2-.67.34-.93.68-1.3,1.83-2.66,2.71-3.22,1.44-.74,1.71-.97,1.9-1.36.19-.39.31-.93.82-1.97.46-.63,2.53-2.08,2-2.89,1.55-.7,2.13-2.57,2.84-4.14,1.31-2.88,2.34-5.96,3.4-8.89.19-.1.55.13.66-.14.13-1.41-.14-2.63,0-4.49-.64-.3-.48-.69-.33-1.09.07-.18.14-.36.21-.53.15-.4.31-.8-.09-1.33-1.18-2.03-1.64-3.62-4.47-4.46-.38-1.42-2.19-2.61-4.1-3.07-2.05-.5-4.25-.11-4.82,1.86-.71.74-1.16,1.54-1.41,2.23-.41,1.11-.56,2.27-.99,3.37-.27.69-.67,1.35-1.22,1.98.22.2.88.04.77.31-.49.49-.9,1.15-1.18,1.84-.39.96-.65,1.95-.99,2.77-.23.55-.46,1.1-.96,1.59-.04.44.37.52.34.96-2.37,3.83-5.31,9.06-7.75,14.06-1.19,2.44-2.27,4.89-3.04,6.94.34-.09.55-.5.96-.73Z"/>
  </g>
</svg>