<?xml version="1.0" encoding="UTF-8"?>
<svg id="Layer_1" data-name="Layer 1" xmlns="http://www.w3.org/2000/svg" xmlns:xlink="http://www.w3.org/1999/xlink" viewBox="0 0 626.06 301.92">
  <defs>
    <style>
      .cls-1 {
        fill: #f069a6;
      }

      .cls-1, .cls-2, .cls-3, .cls-4, .cls-5 {
        stroke-miterlimit: 10;
      }

      .cls-1, .cls-4 {
        stroke: #f6aacb;
      }

      .cls-2 {
        fill: #fad5e5;
      }

      .cls-2, .cls-3 {
        stroke: #f069a6;
      }

      .cls-3 {
        stroke-width: 2px;
      }

      .cls-3, .cls-4 {
        fill: none;
      }

      .cls-5 {
        fill: url(#Orange_Yellow);
        stroke: #fad5e5;
      }
    </style>
    <linearGradient id="Orange_Yellow" data-name="Orange, Yellow" x1="86.81" y1="31.64" x2="115.02" y2="31.64" gradientUnits="userSpaceOnUse">
      <stop offset="0" stop-color="#fff33b"/>
      <stop offset=".04" stop-color="#fee62d"/>
      <stop offset=".12" stop-color="#fdd51b"/>
      <stop offset=".2" stop-color="#fdca0f"/>
      <stop offset=".28" stop-color="#fdc70c"/>
      <stop offset=".67" stop-color="#f3903f"/>
      <stop offset=".89" stop-color="#ed683c"/>
      <stop offset="1" stop-color="#e93e3a"/>
    </linearGradient>
  </defs>
  <path class="cls-2" d="m179.86,90.31s-1.91,142.08,2.56,149.97c0,0,3.65,2.64,0,9.5,0,0-9.34,13.32-54,16.95s-79.17-5.65-79.17-5.65c0,0-18.58-4.84-22.08-11.3-3.5-6.46-2.19-9.28,0-13.32s5.84-8.07,4.22-15.74-5.68-10.9.81-22.2l.56-92.13"/>
  <path class="cls-4" d="m166.16,108.49s-2.83,52.53,0,60.03"/>
  <path class="cls-4" d="m168.52,180.25s-1.42,53,3.77,60.03"/>
  <path class="cls-4" d="m37.85,240.28s67.46,26.73,128.32,2.81"/>
  <path class="cls-2" d="m103.98,69.37s80.67-.89,75.87,20.93c-.82,3.71-3.88,6.51-7.59,7.42-5.26,1.29-16.1,2.87-38.2,3.3-.98.02-1.95.09-2.93.21-6.12.8-28.29,4.34-39.27,14.96,0,0-1.05,1.14-3,2.42-3.5,2.3-8.07,2.08-11.42-.44-2.71-2.04-6.18-3.97-8.44-2.67,0,0-8.31-.56-7.27,15.9,0,0-.69,10.96-12.12,9.58s-9.7-17.9-9.7-17.9c0,0,.3-11.2-7.16-16.69-1.68-1.24-2.99-2.91-3.82-4.82-2.15-4.96-4.12-13.87,5.43-19.8,13.85-8.61,64.07-12.42,69.61-12.4Z"/>
  <path class="cls-4" d="m73.1,79.05s-36.78.4-28.18,14.53c0,0,6.65,4.04,26.61,5.25s89.13-3.63,88.78-12.11c0,0,1.61-4.04-10.52-6.05"/>
  <path class="cls-3" d="m103.61,44.74s-6.63,26.16.91,39.56"/>
  <path class="cls-5" d="m95.25,7.82c2.68,3.62,7.74,10.05,12.16,13.26,1.29.94,2.47,2.01,3.46,3.26,1.98,2.5,4.51,6.66,4.11,11.23-.66,7.38.22,11.94-8.3,16.93,0,0-10.7,6.95-17.03.87s-.44-24.75,1.97-29.09c1.69-3.06,1.87-11.27,1.82-15.87,0-.97,1.24-1.38,1.81-.6Z"/>
  <g>
    <path class="cls-1" d="m212.14,187.16c-10.28,0-14.96-5.75-14.96-14.17v-16.38c0-4.3,1.23-7.32,3.68-9.41l7.54-6.33c2.45-2.03,6.19-3.02,11.28-3.02h14.61c1.87,0,2.69.81,2.69,2.67v7.03c0,1.05-.29,1.68-.82,2.15l-7.6,6.27c-.35.35-.99.58-1.81.58h-7.6v8.36c.12-.17.29-.35.47-.52l7.54-6.33c.41-.35,1.05-.52,1.87-.52h9.06c1.87,0,2.69.81,2.69,2.67v17.95c0,1.04-.29,1.68-.82,2.15l-7.6,6.27c-.35.35-.99.58-1.81.58h-18.4Zm28.04-9v-17.95c0-1.45-.64-2.09-2.1-2.09h-9.06c-1.46,0-2.1.64-2.1,2.09v9.06h-5.67c-1.81,0-2.69-.87-2.69-2.85v-13.88c0-1.98,1.11-2.9,3.56-2.9h12.15c1.46,0,2.1-.64,2.1-2.09v-7.03c0-1.45-.64-2.09-2.1-2.09h-14.61c-9.82,0-14.37,3.78-14.37,11.85v18.12c0,8.08,4.56,11.85,14.37,11.85h18.4c1.46,0,2.1-.64,2.1-2.09Zm-28.51-10.63v-16.27c0-5.52,1.87-7.61,9.35-7.61h10.11v.58h-10.11c-6.89,0-8.76,1.86-8.76,7.03v16.27c0,5.05,2.04,6.91,9.93,6.91h11.04v-11.1h.58v11.68h-11.63c-8.59,0-10.52-2.09-10.52-7.49Z"/>
    <path class="cls-1" d="m247.72,187.16c-1.87,0-2.69-.81-2.69-2.67v-37.64c0-1.05.29-1.68.82-2.15l7.54-6.33c.41-.35,1.05-.52,1.87-.52h9.06c1.87,0,2.69.81,2.69,2.67v23.64l.12-.12,7.54-6.33c.41-.35,1.05-.52,1.87-.52h8.47c1.87,0,2.69.81,2.69,2.67v18.3c0,1.04-.29,1.68-.82,2.15l-7.6,6.27c-.35.35-.99.58-1.81.58h-29.74Zm39.38-9v-18.3c0-1.45-.64-2.09-2.1-2.09h-8.47c-1.46,0-2.1.64-2.1,2.09v9.41h-8v-28.75c0-1.45-.64-2.09-2.1-2.09h-9.06c-1.46,0-2.1.64-2.1,2.09v37.64c0,1.45.64,2.09,2.1,2.09h29.74c1.46,0,2.1-.64,2.1-2.09Zm-27.58-34.51h.58v30.79h20.33v-11.44h.58v12.02h-21.5v-31.37Z"/>
    <path class="cls-1" d="m309.6,188.03c-15.31,0-18.75-6.85-18.75-14.17v-18.07c0-3.6.88-6.68,3.51-8.89l7.6-6.27c2.75-2.32,7.36-3.66,15.19-3.66,15.31,0,18.7,5.17,18.7,12.49v19.81c0,3.6-.88,6.62-3.51,8.83l-7.54,6.27c-2.75,2.32-7.42,3.66-15.19,3.66Zm25.65-38.57c0-7.09-3.51-11.91-18.11-11.91s-18.17,4.82-18.17,11.91v19.81c0,7.09,3.56,11.85,18.17,11.85s18.11-4.76,18.11-11.85v-19.81Zm-18.23,26.31c-9.17,0-11.74-3.14-11.74-7.84v-17.14c0-4.71,2.57-7.84,11.74-7.84s11.86,3.14,11.86,7.84v17.14c0,4.71-2.69,7.84-11.86,7.84Zm0-.58c8.71,0,11.28-2.9,11.28-7.26v-17.14c0-4.36-2.57-7.26-11.28-7.26s-11.16,2.9-11.16,7.26v17.14c0,4.36,2.45,7.26,11.16,7.26Zm-4.79-23.64c0-1.51.7-2.67,4.91-2.67s4.91,1.16,4.91,2.67v15.63c0,1.57-.64,2.73-4.91,2.73s-4.91-1.16-4.91-2.73v-15.63Zm1.69,17.37v-11.04c0-.76-.23-1.34-1.11-1.68v10.98c0,.75.23,1.34,1.11,1.74Z"/>
    <path class="cls-1" d="m354.7,187.16h-7.71c-1.52,0-2.63-.99-3.1-2.5l-2.92-8.02c-1.11-2.9-1.11-4.82-1.11-7.38v-22.42c0-1.05.29-1.68.82-2.15l7.54-6.33c.41-.35,1.05-.52,1.87-.52h9c1.87,0,2.69.81,2.69,2.67v15.16l3.27-2.73c.64-.52,1.52-.76,2.63-.76h.82v-5.34c0-1.05.23-1.68.7-2.09l.06-.06,7.6-6.33c.41-.35.99-.52,1.87-.52h8.71c1.87,0,2.69.81,2.69,2.67v22.54c0,2.56,0,4.47-1.11,7.38l-2.92,7.9c-.23.75-.58,1.39-1.17,1.92l-7.54,6.22c-.47.46-.99.7-1.69.7h-7.77c-1.58,0-2.8-.7-3.27-2.15l-1.17-4.12-6.72,5.58c-.58.41-1.29.7-2.04.7Zm21.91-46.65v21.38l-3.39-7.32c-.64-1.34-1.58-1.8-3.1-1.8h-2.45c-1.52,0-2.45.46-3.1,1.8l-3.39,7.32v-21.38c0-1.45-.64-2.09-2.1-2.09h-9c-1.46,0-2.1.64-2.1,2.09v22.42c0,2.5,0,4.36,1.05,7.2l2.92,8.02c.41,1.22,1.29,2.09,2.57,2.09h7.71c1.23,0,2.1-.58,2.45-1.74l2.75-9.47c.23-.76.58-.99,1.05-.99h.53c.47,0,.82.23,1.05.99l2.69,9.47c.35,1.22,1.4,1.74,2.69,1.74h7.77c1.23,0,1.93-.93,2.34-2.09l2.92-7.9c1.05-2.85,1.05-4.71,1.05-7.2v-22.54c0-1.45-.64-2.09-2.1-2.09h-8.71c-1.52,0-2.1.64-2.1,2.09Zm-4.21,22.42l5.38,10.69c.41.81.99.81,1.58.81h.29c.64,0,1.23-.58,1.34-1.22l1.46-6.62c.29-1.45.29-4.12.29-5.87v-17.08h.58v17.14c0,1.74,0,4.42-.29,5.87l-1.46,6.56c-.29,1.28-.99,1.8-1.93,1.8h-.41c-.7,0-1.52-.17-1.93-.99l-5.38-10.8c-.99-2.03-1.46-2.44-2.4-2.44h-1.46c-.93,0-1.4.41-2.4,2.44l-5.38,10.8c-.41.81-1.23.99-1.93.99h-.41c-.93,0-1.64-.52-1.93-1.8l-1.46-6.56c-.29-1.45-.29-4.12-.29-5.87v-17.14h.58v17.08c0,1.74,0,4.42.29,5.87l1.46,6.62c.12.64.7,1.22,1.34,1.22h.29c.58,0,1.17,0,1.58-.81l5.38-10.69c1.11-2.15,1.64-2.73,2.86-2.73h1.46c1.23,0,1.75.58,2.86,2.73Z"/>
    <path class="cls-1" d="m411.91,175.19v-3.49c0-3.54,1.23-6.1,3.15-7.73l2.57-2.09c-1.34-1.34-1.81-3.19-1.81-5.46v-2.79c0-2.79.88-5.23,2.98-6.97l7.48-6.27c1.93-1.63,4.85-2.56,8.88-2.56h12.33c1.87,0,2.69.81,2.69,2.67v6.68c0,1.05-.29,1.68-.82,2.15l-6.95,5.75c.06.29.12.64.12.99v3.66l3.39-2.85c.41-.35,1.05-.52,1.87-.52h11.33c1.87,0,2.69.75,2.69,2.67v6.27c0,1.04-.29,1.68-.82,2.15l-2.63,2.21v.35c0,3.6-1.23,6.51-3.51,8.42l-7.54,6.33c-1.81,1.51-4.32,2.38-7.54,2.38h-16.24c-7.6,0-11.63-5.4-11.63-11.97Zm21.03-7.55v-1.8c0-.93.35-1.68,2.22-1.68h4.67c1.46,0,2.1-.64,2.1-2.09v-5.98c0-1.45-.64-2.09-2.1-2.09h-.88c-1.87,0-2.22-.81-2.22-1.74v-1.22c0-.93.35-1.74,2.22-1.74h8.53c1.46,0,2.1-.64,2.1-2.09v-6.68c0-1.45-.64-2.09-2.1-2.09h-12.33c-7.95,0-11.22,3.78-11.22,8.89v2.79c0,2.96.88,5.17,3.45,6.27-4.21.41-7.36,3.54-7.36,9v4.65c0,6.22,3.86,10.22,11.04,10.22h16.24c6.78,0,10.46-4.01,10.46-10.22v-2.61h1.34c1.46,0,2.1-.64,2.1-2.09v-6.27c0-1.51-.64-2.09-2.1-2.09h-11.33c-1.46,0-2.1.64-2.1,2.09v8.02c0,1.57-.53,2.32-2.22,2.32h-8.3c-1.87,0-2.22-.81-2.22-1.74Zm-7.3,1.1v-3.54c0-3.83,2.28-6.56,7.13-6.56h.41c-2.04-.81-3.04-2.61-3.04-5.63v-3.25c0-4.3,2.16-6.1,6.89-6.1h7.3v.58h-7.3c-4.38,0-6.31,1.68-6.31,5.63v3.14c0,3.78,1.69,5.58,5.38,5.58h.58v.58h-3.92c-4.44,0-6.54,2.56-6.54,6.04v3.54c0,3.95,1.99,5.69,6.6,5.69h13.73c3.1,0,4.85-1.57,4.85-4.71v-7.84h4.38v.58h-3.8v7.26c0,3.6-1.99,5.29-5.43,5.29h-14.08c-4.62,0-6.84-1.97-6.84-6.27Zm11.92-1.1l-1.4,1.16h1.4v-1.16Z"/>
    <path class="cls-1" d="m497.68,187.16c-10.28,0-14.96-5.75-14.96-14.17v-16.32c0-4.3,1.23-7.38,3.68-9.47l7.6-6.33c2.4-2.03,6.13-3.02,11.22-3.02h14.26c1.87,0,2.69.81,2.69,2.67v7.03c0,1.05-.29,1.68-.82,2.15l-7.6,6.27c-.35.35-.99.58-1.81.58h-7.19v9.82c0,1.63,1.05,2.21,2.98,2.21h11.74c1.87,0,2.69.81,2.69,2.67v6.91c0,1.04-.29,1.68-.82,2.15l-7.6,6.27c-.35.35-.99.58-1.81.58h-14.26Zm23.9-9v-6.91c0-1.45-.64-2.09-2.1-2.09h-11.74c-2.45,0-3.56-.87-3.56-2.79v-13.83c0-1.98,1.11-2.9,3.56-2.9h11.74c1.46,0,2.1-.64,2.1-2.09v-7.03c0-1.45-.64-2.09-2.1-2.09h-14.26c-9.82,0-14.37,3.78-14.37,11.91v18.07c0,8.08,4.56,11.85,14.37,11.85h14.26c1.46,0,2.1-.64,2.1-2.09Zm-5.32-3.14h-9.76c-7.59,0-9.35-2.09-9.35-7.49v-16.27c0-5.52,1.87-7.61,9.35-7.61h9.76v.58h-9.76c-6.89,0-8.76,1.86-8.76,7.03v16.27c0,5.05,1.75,6.91,8.76,6.91h9.76v.58Z"/>
    <path class="cls-1" d="m543.73,188.03c-15.31,0-18.75-6.85-18.75-14.17v-18.07c0-3.6.88-6.68,3.51-8.89l7.6-6.27c2.75-2.32,7.36-3.66,15.19-3.66,15.31,0,18.7,5.17,18.7,12.49v19.81c0,3.6-.88,6.62-3.51,8.83l-7.54,6.27c-2.75,2.32-7.42,3.66-15.19,3.66Zm25.65-38.57c0-7.09-3.51-11.91-18.11-11.91s-18.17,4.82-18.17,11.91v19.81c0,7.09,3.56,11.85,18.17,11.85s18.11-4.76,18.11-11.85v-19.81Zm-18.23,26.31c-9.17,0-11.74-3.14-11.74-7.84v-17.14c0-4.71,2.57-7.84,11.74-7.84s11.86,3.14,11.86,7.84v17.14c0,4.71-2.69,7.84-11.86,7.84Zm0-.58c8.71,0,11.28-2.9,11.28-7.26v-17.14c0-4.36-2.57-7.26-11.28-7.26s-11.16,2.9-11.16,7.26v17.14c0,4.36,2.45,7.26,11.16,7.26Zm-4.79-23.64c0-1.51.7-2.67,4.91-2.67s4.91,1.16,4.91,2.67v15.63c0,1.57-.64,2.73-4.91,2.73s-4.91-1.16-4.91-2.73v-15.63Zm1.69,17.37v-11.04c0-.76-.23-1.34-1.11-1.68v10.98c0,.75.23,1.34,1.11,1.74Z"/>
    <path class="cls-1" d="m576.39,187.16c-1.87,0-2.69-.81-2.69-2.67v-11.79c0-1.05.29-1.74.76-2.15l7.6-6.33c.41-.35.99-.52,1.87-.52h11.8c1.87,0,2.69.75,2.69,2.67v11.79c0,1.04-.29,1.68-.82,2.15l-7.59,6.27c-.35.35-.99.58-1.81.58h-11.8Zm21.44-9v-11.79c0-1.51-.64-2.09-2.1-2.09h-11.8c-1.46,0-2.1.58-2.1,2.09v11.79c0,1.45.64,2.09,2.1,2.09h11.8c1.46,0,2.1-.64,2.1-2.09Zm-8.3-8.66h.58v5.52h-.58v-5.52Z"/>
  </g>
</svg>